<svg width="76" height="76" viewBox="0 0 76 76" fill="none" xmlns="http://www.w3.org/2000/svg">
<path d="M49.7322 0.00135672C50.0473 0.00370506 50.3623 0.00338586 50.6774 0.00273339C53.5412 0.0065322 53.5412 0.00653219 54.727 0.430322C54.8973 0.467086 55.0684 0.500146 55.2402 0.529249C55.3342 0.5457 55.4282 0.56215 55.525 0.579099C55.7153 0.61128 55.9057 0.642985 56.0961 0.674162C56.6049 0.760506 57.0798 0.87213 57.5657 1.04591C57.8165 1.13049 58.0688 1.19449 58.3255 1.25884C58.7015 1.35933 59.044 1.48355 59.3963 1.64875C59.7568 1.81596 60.118 1.97976 60.4829 2.1372C62.3329 2.94488 64.0148 3.94147 65.609 5.17882C65.6956 5.24551 65.7821 5.31221 65.8714 5.38092C69.6144 8.32317 72.6313 12.1318 74.2156 16.6543C74.2437 16.7328 74.2718 16.8112 74.3007 16.8921C74.771 18.211 75.1415 19.5322 75.4027 20.9082C75.4223 21.01 75.4418 21.1118 75.462 21.2166C75.9743 23.9898 75.9706 26.8349 75.5017 29.6138C75.4868 29.7117 75.4719 29.8096 75.4566 29.9104C75.2458 31.2931 74.8997 32.6058 74.4567 33.9295C74.4333 33.9998 74.4098 34.0702 74.3856 34.1427C74.1416 34.8677 73.8831 35.5648 73.5231 36.2419C73.4629 36.3934 73.4047 36.5458 73.35 36.6994C73.0836 37.3773 72.7124 37.995 72.336 38.6161C72.3017 38.6728 72.2674 38.7294 72.232 38.7878C71.156 40.5463 69.8753 42.2384 68.3789 43.6614C68.3014 43.739 68.2239 43.8165 68.144 43.8964C68.0583 43.9821 67.9726 44.0678 67.8843 44.1561C67.8284 44.2165 67.7726 44.2769 67.715 44.3392C67.0497 45.0402 66.2932 45.6065 65.5185 46.1794C65.3363 46.3145 65.1558 46.4516 64.9756 46.5894C63.4212 47.7601 61.6679 48.6519 59.8814 49.4098C59.6976 49.4878 59.5146 49.568 59.3317 49.6484C57.8039 50.3104 56.286 50.6566 54.6281 50.7842C54.6281 49.1845 54.6281 47.5849 54.6281 45.9367C56.4088 45.541 56.4088 45.541 56.7055 45.541C56.7055 45.4757 56.7055 45.4104 56.7055 45.3432C56.7954 45.3155 56.8853 45.2878 56.978 45.2593C57.916 44.9601 58.793 44.5962 59.6733 44.1561C59.7667 44.1094 59.86 44.0627 59.9562 44.0146C61.7553 43.0725 63.3537 41.7939 64.8176 40.3968C64.8969 40.3216 64.9762 40.2463 65.0579 40.1688C67.3101 37.979 68.8218 35.1389 69.8798 32.2135C69.9465 32.03 70.0156 31.8473 70.0854 31.665C70.4325 30.7159 70.5845 29.7163 70.7532 28.7234C70.7759 28.5987 70.7986 28.474 70.822 28.3455C71.4336 24.4257 70.7273 20.0798 68.8801 16.5744C68.707 16.2186 68.5903 15.8458 68.4779 15.4672C68.4126 15.4672 68.3473 15.4672 68.28 15.4672C68.2581 15.4153 68.2361 15.3634 68.2135 15.3099C67.4535 13.6549 66.2203 12.3193 64.9466 11.0457C64.8113 10.9103 64.6772 10.7737 64.5459 10.6345C63.2657 9.29225 61.6013 8.12777 59.9701 7.25628C59.8469 7.18984 59.8469 7.18984 59.7211 7.12205C59.0035 6.74759 58.2766 6.466 57.507 6.21702C57.3185 6.156 57.1306 6.09346 56.9426 6.0309C55.7319 5.63294 54.5231 5.27024 53.2555 5.11081C53.1705 5.09926 53.0856 5.08772 52.9981 5.07583C52.7502 5.04259 52.5021 5.01157 52.2538 4.98096C52.1825 4.97135 52.1111 4.96174 52.0376 4.95184C50.3075 4.73302 48.5495 4.84672 46.8379 5.14293C46.5136 5.19515 46.1873 5.22541 45.8607 5.2592C42.2129 5.73673 38.8378 7.96865 36.1287 10.323C36.0374 10.402 35.9461 10.4809 35.852 10.5622C35.3398 11.0131 34.8794 11.4776 34.447 12.0048C34.4049 12.0545 34.3629 12.1041 34.3195 12.1553C33.4927 13.1326 32.8023 14.1561 32.1716 15.2694C32.1258 15.3497 32.08 15.43 32.0329 15.5128C30.4408 18.3374 29.7094 21.1399 29.4017 24.3707C36.6817 24.3707 43.9618 24.3707 51.4624 24.3707C51.4744 31.0652 51.4744 31.0652 51.4769 33.8756C51.4775 34.5187 51.4781 35.1618 51.4787 35.8049C51.4788 35.9257 51.4788 35.9257 51.4789 36.0491C51.4802 37.3444 51.4826 38.6397 51.4853 39.935C51.4881 41.2676 51.4897 42.6003 51.4903 43.9329C51.4907 44.753 51.492 45.5731 51.4944 46.3932C51.496 46.9582 51.4965 47.5231 51.4961 48.088C51.4959 48.4123 51.4963 48.7366 51.4978 49.0609C51.5076 51.3729 51.3294 53.6422 50.8205 55.9011C50.77 56.1258 50.7219 56.351 50.6741 56.5764C50.4835 57.4523 50.2203 58.2632 49.8796 59.094C49.8444 59.1927 49.8092 59.2914 49.7729 59.3931C48.8408 61.9991 47.1907 64.4898 45.3668 66.5559C45.2681 66.6681 45.1701 66.7811 45.0727 66.8945C44.0746 68.0519 42.9851 69.1492 41.7676 70.0749C41.6513 70.1666 41.5351 70.2583 41.419 70.3501C40.4022 71.1434 39.3272 71.8134 38.2062 72.4492C38.0871 72.5169 38.0871 72.5169 37.9655 72.586C37.7396 72.7132 37.5126 72.8383 37.2849 72.9623C37.2182 72.9994 37.1514 73.0365 37.0827 73.0747C36.6607 73.2988 36.3086 73.3971 35.8319 73.4384C35.7993 73.5364 35.7666 73.6343 35.733 73.7352C35.5357 73.7802 35.3379 73.8236 35.1391 73.8612C34.7635 73.9523 34.4115 74.0851 34.0513 74.2237C33.9467 74.2635 33.9467 74.2635 33.84 74.3041C33.566 74.4087 33.2922 74.514 33.0191 74.6209C32.3413 74.8693 31.6268 74.9665 30.9171 75.0822C30.6872 75.1203 30.4577 75.1605 30.2283 75.2013C30.0764 75.2279 29.9245 75.2544 29.7727 75.281C29.7051 75.2931 29.6375 75.3053 29.5679 75.3179C25.8396 75.9544 21.506 75.6552 17.9717 74.3196C17.6642 74.2062 17.3518 74.1188 17.0358 74.032C15.9895 73.7008 15.0346 73.2593 14.068 72.7459C13.995 72.7075 13.9219 72.6691 13.8467 72.6295C12.8063 72.0791 11.8394 71.4786 10.9023 70.7674C10.8345 70.7169 10.7667 70.6665 10.6969 70.6145C8.66181 69.0982 6.86842 67.3719 5.36243 65.3264C5.31693 65.2657 5.27144 65.2049 5.22457 65.1423C3.24502 62.4907 1.62844 59.3768 0.988771 56.1111C0.913954 55.7463 0.81613 55.3956 0.712857 55.038C0.372955 53.6003 0.341542 52.1567 0.317149 50.6852C0.315507 50.5907 0.313866 50.4962 0.312174 50.3989C0.303422 49.8016 0.306681 49.205 0.317149 48.6078C0.318393 48.5171 0.319636 48.4263 0.320917 48.3329C0.34479 46.9071 0.515649 45.5507 0.811784 44.1561C0.877076 44.1561 0.942368 44.1561 1.00964 44.1561C1.0016 44.0515 0.99357 43.9469 0.985293 43.8392C0.986502 43.227 1.20139 42.6762 1.39916 42.1033C1.43933 41.9853 1.4795 41.8673 1.52089 41.7457C1.88257 40.7046 2.30216 39.7027 2.79032 38.7151C2.84384 38.6062 2.84384 38.6062 2.89843 38.4951C4.11775 36.0417 5.75566 33.8709 7.63775 31.8891C7.71541 31.8072 7.79307 31.7254 7.87308 31.641C8.33459 31.1671 8.82323 30.7425 9.33999 30.3298C9.51705 30.1879 9.6922 30.0436 9.86476 29.8963C10.6867 29.1977 11.5791 28.6138 12.4852 28.031C12.6231 27.942 12.6231 27.942 12.7638 27.8513C14.9707 26.4808 17.4954 25.5494 20.0098 24.9333C20.1123 24.9078 20.1123 24.9078 20.2169 24.8818C20.6668 24.7769 21.01 24.7664 21.4875 24.7664C21.4875 26.366 21.4875 27.9657 21.4875 29.6138C21.0305 29.7117 20.5734 29.8097 20.1025 29.9106C19.7814 30.0051 19.4707 30.1011 19.1566 30.2135C19.0739 30.243 18.9913 30.2724 18.9062 30.3027C16.3272 31.249 13.9198 32.6848 11.9075 34.5594C11.7071 34.7456 11.5011 34.9219 11.2919 35.098C9.93115 36.2931 8.86565 37.8641 7.93453 39.4076C7.89718 39.4692 7.85983 39.5309 7.82135 39.5944C7.22841 40.5837 6.76272 41.5957 6.3517 42.6721C6.30314 42.795 6.25458 42.9179 6.20601 43.0408C5.95651 43.6969 5.79065 44.3155 5.71408 45.0139C5.66709 45.2959 5.6001 45.5392 5.51275 45.81C5.34979 46.3369 5.28635 46.8473 5.24495 47.3959C5.23707 47.494 5.22919 47.5921 5.22106 47.6931C5.14508 48.7245 5.14101 49.7509 5.16457 50.7842C5.16543 50.8589 5.16629 50.9336 5.16718 51.0106C5.20623 54.0112 6.10131 57.389 7.63775 59.9844C7.67584 60.0493 7.71394 60.1143 7.75319 60.1812C9.71051 63.4944 12.8546 67.1781 16.5659 68.5663C16.9007 68.695 17.2316 68.8296 17.5606 68.9724C18.9549 69.5768 20.3221 70.0295 21.809 70.347C21.9062 70.3678 22.0033 70.3887 22.1034 70.4102C25.3817 71.0793 29.2364 70.8604 32.3695 69.6792C32.4387 69.654 32.5078 69.6287 32.5791 69.6027C35.5168 68.5299 38.1203 67.0029 40.3826 64.8318C40.4303 64.7862 40.478 64.7407 40.5272 64.6937C41.1607 64.0858 41.7345 63.4558 42.2622 62.7543C42.3248 62.6725 42.3874 62.5906 42.4519 62.5062C42.9901 61.7865 43.4635 61.0302 43.9317 60.264C44.0287 60.1063 44.1278 59.9498 44.2272 59.7935C44.5038 59.3529 44.7116 58.9396 44.8586 58.4402C44.9321 58.2071 45.0185 57.9851 45.1118 57.7593C45.9717 55.6242 46.3242 53.6047 46.615 51.2788C39.3349 51.2788 32.0549 51.2788 24.5543 51.2788C24.5423 44.621 24.5423 44.6211 24.5398 41.8235C24.5392 41.1834 24.5386 40.5433 24.538 39.9032C24.5379 39.8229 24.5378 39.7427 24.5377 39.6601C24.5364 38.3717 24.5341 37.0833 24.5314 35.7949C24.5286 34.4689 24.5269 33.1428 24.5263 31.8168C24.5259 31.0011 24.5247 30.1854 24.5222 29.3697C24.5206 28.8074 24.5202 28.2451 24.5206 27.6828C24.5208 27.3603 24.5203 27.0377 24.5189 26.7152C24.5087 24.341 24.6084 21.9287 25.2158 19.6222C25.2507 19.4849 25.2856 19.3476 25.3204 19.2103C25.8189 17.2795 26.5712 15.4856 27.4231 13.6865C27.4884 13.6865 27.5537 13.6865 27.621 13.6865C27.6355 13.5831 27.6355 13.5831 27.6504 13.4775C28.0821 11.7051 29.7936 9.96572 30.9845 8.64126C31.0322 8.58796 31.08 8.53465 31.1291 8.47973C32.0126 7.49584 32.9179 6.59908 33.9523 5.77238C34.0272 5.70951 34.102 5.64664 34.1792 5.58187C37.0763 3.17339 40.927 1.14635 44.6735 0.57253C45.191 0.536389 45.191 0.536389 45.6257 0.331395C46.992 0.0498034 48.3407 -0.00970104 49.7322 0.00135672Z" fill="#A6A6A8"/>
<path d="M29.3028 24.3688C36.6154 24.3688 43.9281 24.3688 51.4624 24.3688C51.4744 31.0633 51.4744 31.0633 51.4769 33.8737C51.4775 34.5168 51.4781 35.1599 51.4787 35.803C51.4788 35.9239 51.4788 35.9239 51.4789 36.0472C51.4802 37.3425 51.4826 38.6378 51.4853 39.9331C51.4881 41.2658 51.4897 42.5984 51.4903 43.931C51.4907 44.7512 51.492 45.5712 51.4944 46.3913C51.496 46.9563 51.4965 47.5212 51.4961 48.0861C51.4959 48.4104 51.4963 48.7347 51.4978 49.059C51.5076 51.371 51.3294 53.6403 50.8205 55.8992C50.77 56.124 50.7219 56.3492 50.6741 56.5745C50.4835 57.4504 50.2203 58.2613 49.8796 59.0921C49.8268 59.2402 49.8268 59.2402 49.7729 59.3912C48.8408 61.9972 47.1907 64.4879 45.3668 66.554C45.2681 66.6663 45.1701 66.7792 45.0727 66.8927C44.0746 68.05 42.9851 69.1473 41.7676 70.073C41.6513 70.1647 41.5351 70.2564 41.419 70.3482C40.4022 71.1415 39.3272 71.8115 38.2062 72.4473C38.1268 72.4924 38.0474 72.5376 37.9655 72.5841C37.7396 72.7113 37.5126 72.8364 37.2849 72.9605C37.2182 72.9975 37.1514 73.0346 37.0826 73.0728C36.6607 73.2969 36.3086 73.3952 35.8319 73.4366C35.7993 73.5345 35.7666 73.6324 35.733 73.7333C35.5357 73.7783 35.3379 73.8218 35.1391 73.8593C34.7635 73.9504 34.4115 74.0832 34.0512 74.2218C33.9815 74.2483 33.9118 74.2749 33.84 74.3022C33.5659 74.4068 33.2922 74.5121 33.0191 74.619C32.3413 74.8674 31.6268 74.9647 30.9171 75.0803C30.6872 75.1184 30.4577 75.1586 30.2283 75.1995C30.0764 75.226 29.9245 75.2526 29.7727 75.2791C29.7051 75.2912 29.6375 75.3034 29.5679 75.316C25.8396 75.9525 21.506 75.6534 17.9717 74.3177C17.6642 74.2043 17.3517 74.1169 17.0358 74.0301C15.9895 73.6989 15.0346 73.2574 14.068 72.7441C13.9584 72.6864 13.9584 72.6864 13.8467 72.6276C12.8063 72.0772 11.8394 71.4767 10.9023 70.7655C10.8345 70.7151 10.7667 70.6646 10.6969 70.6126C8.66181 69.0964 6.86842 67.37 5.36243 65.3245C5.31693 65.2638 5.27144 65.203 5.22457 65.1405C3.24502 62.4888 1.62844 59.3749 0.988771 56.1093C0.913954 55.7444 0.81613 55.3937 0.712857 55.0361C0.372955 53.5985 0.341542 52.1548 0.317149 50.6833C0.315507 50.5889 0.313866 50.4944 0.312174 50.397C0.303422 49.7997 0.306681 49.2031 0.317149 48.6059C0.318393 48.5152 0.319636 48.4244 0.320917 48.331C0.34479 46.9052 0.515649 45.5488 0.811784 44.1542C0.877076 44.1542 0.942368 44.1542 1.00964 44.1542C1.0016 44.0496 0.99357 43.945 0.985293 43.8373C0.986502 43.2251 1.20139 42.6743 1.39916 42.1014C1.43933 41.9834 1.4795 41.8654 1.52089 41.7438C1.88257 40.7027 2.30216 39.7008 2.79032 38.7132C2.84384 38.6043 2.84384 38.6043 2.89843 38.4933C4.11775 36.0398 5.75566 33.869 7.63775 31.8872C7.71541 31.8054 7.79307 31.7235 7.87308 31.6391C8.33459 31.1652 8.82322 30.7407 9.33998 30.328C9.51705 30.1861 9.6922 30.0417 9.86476 29.8944C10.6867 29.1958 11.5791 28.6119 12.4852 28.0291C12.5771 27.9698 12.6691 27.9105 12.7638 27.8494C14.9707 26.4789 17.4954 25.5475 20.0098 24.9314C20.0782 24.9144 20.1465 24.8974 20.2169 24.8799C20.6668 24.775 21.01 24.7645 21.4875 24.7645C21.4875 26.3641 21.4875 27.9638 21.4875 29.6119C20.802 29.7588 20.802 29.7588 20.1025 29.9087C19.7814 30.0032 19.4707 30.0992 19.1566 30.2116C19.0739 30.2411 18.9913 30.2705 18.9062 30.3008C16.3272 31.2471 13.9198 32.6829 11.9074 34.5575C11.7071 34.7437 11.5011 34.9201 11.2919 35.0962C9.93115 36.2912 8.86565 37.8622 7.93453 39.4057C7.89718 39.4673 7.85983 39.529 7.82135 39.5926C7.22841 40.5818 6.76272 41.5938 6.3517 42.6703C6.30314 42.7932 6.25458 42.916 6.20601 43.0389C5.95651 43.695 5.79065 44.3136 5.71408 45.0121C5.66709 45.294 5.60009 45.5374 5.51275 45.8081C5.34979 46.3351 5.28635 46.8454 5.24495 47.394C5.23707 47.4921 5.22918 47.5902 5.22106 47.6913C5.14508 48.7226 5.14101 49.749 5.16457 50.7823C5.16543 50.857 5.16629 50.9317 5.16718 51.0087C5.20623 54.0093 6.10131 57.3871 7.63775 59.9825C7.67584 60.0474 7.71394 60.1124 7.75319 60.1793C9.71051 63.4925 12.8546 67.1762 16.5659 68.5644C16.9007 68.6931 17.2316 68.8277 17.5606 68.9705C18.9549 69.5749 20.322 70.0276 21.809 70.3451C21.9062 70.366 22.0033 70.3868 22.1034 70.4083C25.3817 71.0774 29.2364 70.8585 32.3695 69.6773C32.4387 69.6521 32.5078 69.6269 32.5791 69.6009C35.5168 68.528 38.1203 67.001 40.3826 64.8299C40.4542 64.7616 40.4542 64.7616 40.5272 64.6919C41.1607 64.0839 41.7345 63.4539 42.2622 62.7524C42.3248 62.6706 42.3874 62.5887 42.4519 62.5044C42.9901 61.7846 43.4635 61.0283 43.9317 60.2622C44.0287 60.1044 44.1278 59.9479 44.2272 59.7916C44.5038 59.351 44.7117 58.9376 44.8586 58.4381C44.9319 58.2061 45.0181 57.9855 45.1114 57.7609C45.8218 55.9989 46.3381 54.2404 46.4917 52.3434C46.516 52.1673 46.516 52.1673 46.615 52.0683C46.6259 51.772 46.6303 51.4778 46.6306 51.1814C46.6314 51.0401 46.6314 51.0401 46.6321 50.8959C46.6336 50.5776 46.6345 50.2594 46.6353 49.9412C46.6362 49.7141 46.6372 49.487 46.6383 49.2599C46.6409 48.6412 46.643 48.0225 46.645 47.4038C46.6471 46.7581 46.6499 46.1123 46.6525 45.4665C46.6569 44.382 46.6609 43.2974 46.6647 42.2128C46.6686 41.0955 46.6727 39.9782 46.6771 38.8609C46.6775 38.7566 46.6775 38.7566 46.6779 38.6502C46.6803 38.0455 46.6826 37.4407 46.685 36.836C46.6953 34.2301 46.7045 31.6242 46.7139 29.0183C40.9682 29.0183 35.2225 29.0183 29.3028 29.0183C29.3028 27.484 29.3028 25.9496 29.3028 24.3688Z" fill="#1E2C39"/>
<path d="M29.3027 29.0183C35.0484 29.0183 40.7941 29.0183 46.7139 29.0183C46.7139 34.7966 46.7139 40.575 46.7139 46.5284C40.9682 46.5284 35.2225 46.5284 29.3027 46.5284C29.3027 40.7501 29.3027 34.9717 29.3027 29.0183Z" fill="#FEFDFC"/>
<path d="M12.1893 34.1653C12.1893 34.4621 12.1893 34.4621 12.0167 34.6683C11.938 34.7455 11.8592 34.8227 11.7781 34.9022C11.6933 34.9861 11.6085 35.0699 11.5211 35.1563C11.3867 35.287 11.3867 35.287 11.2495 35.4204C11.1598 35.5087 11.0702 35.597 10.9778 35.688C10.7557 35.9066 10.533 36.1244 10.3097 36.3417C10.2444 36.309 10.1791 36.2764 10.1118 36.2428C10.3276 36.0072 10.5442 35.7725 10.761 35.5379C10.8213 35.4721 10.8815 35.4063 10.9436 35.3385C11.3364 34.9146 11.7437 34.5334 12.1893 34.1653Z" fill="#D4D6D9"/>
<path d="M36.5246 9.82727C36.5246 10.1241 36.5246 10.1241 36.3703 10.3121C36.2646 10.4155 36.2646 10.4155 36.1567 10.5209C36.0809 10.5958 36.005 10.6708 35.9268 10.7479C35.8466 10.8257 35.7664 10.9034 35.6838 10.9835C35.6035 11.0624 35.5233 11.1412 35.4407 11.2225C35.2421 11.4176 35.0428 11.612 34.8429 11.8058C34.7776 11.7732 34.7123 11.7405 34.645 11.7069C35.1243 11.1555 35.6058 10.6317 36.1656 10.1611C36.3376 10.0199 36.3376 10.0199 36.5246 9.82727Z" fill="#FEE7D7"/>
</svg>
