<svg width="95" height="76" viewBox="0 0 95 76" fill="none" xmlns="http://www.w3.org/2000/svg">
<path d="M71.2174 55.4544C71.4672 55.4546 71.7171 55.4545 71.9669 55.454C72.5032 55.4538 73.0393 55.4563 73.5756 55.4615C74.3509 55.4689 75.1261 55.4713 75.9015 55.4724C77.1596 55.4744 78.4177 55.4805 79.6758 55.4891C80.8973 55.4975 82.1188 55.504 83.3403 55.5078C83.4157 55.5081 83.4911 55.5083 83.5688 55.5086C83.9471 55.5097 84.3254 55.5109 84.7037 55.512C87.8379 55.5215 90.9721 55.5376 94.1062 55.5579C93.5516 56.1156 93.5516 56.1156 93.2557 56.3562C93.193 56.4072 93.1303 56.4583 93.0658 56.5109C92.9993 56.5644 92.9329 56.6179 92.8645 56.673C92.794 56.73 92.7235 56.787 92.6509 56.8458C91.9989 57.3705 91.3345 57.8784 90.6681 58.3847C90.2928 58.67 89.9212 58.9595 89.551 59.2515C89.4661 59.3183 89.4661 59.3183 89.3794 59.3866C89.1282 59.5844 88.877 59.7823 88.6258 59.9804C86.0448 62.0128 83.3584 63.8315 80.5231 65.4918C80.3875 65.5713 80.3875 65.5713 80.2492 65.6524C79.6349 66.0115 79.0163 66.3625 78.3944 66.7082C78.2901 66.7661 78.1858 66.8241 78.0784 66.8838C76.684 67.6545 75.2739 68.3794 73.8329 69.0586C73.7315 69.1067 73.7315 69.1067 73.6282 69.1557C72.8813 69.5089 72.1365 69.828 71.3463 70.0753C70.8797 70.2231 70.4634 70.4116 70.0443 70.6678C69.7034 70.8691 69.3771 70.9426 68.991 71.0178C68.714 71.0778 68.4554 71.1744 68.192 71.2783C67.7613 71.4457 67.3244 71.5963 66.8889 71.7507C66.6783 71.8262 66.4683 71.9031 66.2593 71.9827C65.4595 72.2871 64.6402 72.5064 63.8151 72.7299C63.5044 72.8148 63.1948 72.9037 62.8853 72.9928C62.7705 73.0255 62.6558 73.0582 62.5376 73.0918C62.2854 73.1641 62.0337 73.2375 61.7821 73.312C60.8277 73.5902 59.866 73.8169 58.8939 74.0255C58.7759 74.0508 58.6579 74.0762 58.5363 74.1023C57.8907 74.2382 57.2449 74.3582 56.5935 74.4632C56.2968 74.5133 56.0022 74.5702 55.7072 74.6297C53.7856 75.0141 51.8596 75.24 49.9103 75.4256C49.7847 75.4378 49.6591 75.4499 49.5298 75.4625C47.4944 75.653 45.4647 75.651 43.4229 75.6283C43.6975 75.3493 43.9689 75.0773 44.2762 74.8344C44.3379 74.7853 44.3997 74.7362 44.4634 74.6857C44.5277 74.6351 44.592 74.5844 44.6583 74.5323C44.7942 74.4245 44.9302 74.3167 45.0661 74.2088C45.1648 74.1308 45.1648 74.1308 45.2656 74.0512C45.5074 73.8599 45.7481 73.6672 45.9887 73.4743C46.0683 73.4107 46.1479 73.347 46.2298 73.2815C46.387 73.1557 46.5441 73.0298 46.701 72.9037C47.7109 72.0936 48.7287 71.2944 49.7583 70.5094C50.7954 69.7182 51.8211 68.9151 52.831 68.0893C53.4569 67.5774 54.0945 67.0832 54.7389 66.5948C55.2407 66.2133 55.7327 65.8214 56.2204 65.4221C56.8516 64.9053 57.4919 64.404 58.1404 63.9091C58.813 63.3935 59.4801 62.8706 60.1484 62.3494C60.2443 62.2747 60.2443 62.2747 60.3421 62.1985C60.9537 61.7217 61.5611 61.2409 62.161 60.7496C62.8321 60.1999 63.5127 59.6684 64.2094 59.1517C64.7428 58.7551 65.2628 58.3438 65.7801 57.9264C66.3342 57.4798 66.8931 57.0379 67.4692 56.6197C67.6616 56.4686 67.6616 56.4686 67.8407 56.2481C68.7852 55.2639 69.9423 55.436 71.2174 55.4544Z" fill="#1D2B38"/>
<path d="M51.4316 0.00852078C51.0279 0.435028 50.5895 0.784468 50.1202 1.13621C49.9652 1.25361 49.8102 1.37108 49.6553 1.48862C49.5785 1.5468 49.5017 1.60498 49.4226 1.66492C48.5218 2.35026 47.6415 3.06076 46.7643 3.7759C46.0967 4.31952 45.4206 4.85179 44.7414 5.3809C44.6695 5.43699 44.5976 5.49307 44.5235 5.55086C43.0993 6.66138 43.0993 6.66138 42.5648 7.06927C41.8928 7.58217 41.234 8.10799 40.5796 8.64301C40.0574 9.06895 39.5263 9.48117 38.9904 9.88969C38.6282 10.1673 38.2734 10.454 37.9182 10.7406C37.3983 11.1596 36.8706 11.5656 36.3343 11.9633C35.7029 12.4318 35.0898 12.919 34.482 13.4177C34.0721 13.7535 33.6578 14.0812 33.2363 14.4024C32.7385 14.7819 32.251 15.1719 31.7665 15.5681C31.1811 16.0464 30.5896 16.5137 29.9886 16.9722C29.5049 17.3413 29.0258 17.7164 28.5463 18.091C28.401 18.2043 28.2543 18.316 28.1065 18.4262C27.8819 18.605 27.6803 18.7845 27.4736 18.9822C26.2452 20.1033 25.1894 20.1612 23.5773 20.1271C23.3284 20.1268 23.0795 20.127 22.8305 20.1277C22.2981 20.128 21.7658 20.1243 21.2333 20.1169C20.4636 20.1061 19.6939 20.1027 18.9241 20.1011C17.6747 20.0982 16.4254 20.0895 15.1761 20.077C13.9637 20.0648 12.7513 20.0555 11.5388 20.0499C11.4638 20.0496 11.3889 20.0492 11.3117 20.0489C10.9357 20.0472 10.5597 20.0455 10.1836 20.0439C7.07222 20.0302 3.96093 20.007 0.849609 19.9775C1.1337 19.6127 1.39859 19.3421 1.77458 19.0716C2.31359 18.6765 2.84421 18.2726 3.37111 17.8615C3.44951 17.8004 3.52791 17.7393 3.60869 17.6763C3.76467 17.5545 3.92062 17.4328 4.07652 17.3109C4.27471 17.156 4.47307 17.0013 4.67145 16.8467C5.1512 16.4719 5.62959 16.0961 6.0993 15.7087C16.9025 6.80001 16.9025 6.80001 20.8189 6.80001C20.8189 6.73311 20.8189 6.66621 20.8189 6.59728C20.8899 6.57272 20.961 6.54815 21.0343 6.52284C21.5519 6.33997 22.0454 6.14574 22.532 5.89188C25.0363 4.65011 27.871 3.72903 30.5501 2.94812C30.6564 2.91698 30.7628 2.88583 30.8723 2.85374C32.4584 2.39247 34.0552 1.93532 35.6897 1.68026C35.9263 1.63737 35.9263 1.63737 36.1495 1.53316C36.4624 1.41518 36.7545 1.36199 37.085 1.31123C37.2146 1.29109 37.3442 1.27095 37.4777 1.2502C37.6182 1.22906 37.7587 1.20796 37.8992 1.1869C38.0452 1.16463 38.1913 1.14234 38.3374 1.12003C38.7825 1.05242 39.2277 0.986407 39.6731 0.920811C39.8026 0.901668 39.9322 0.882526 40.0656 0.862803C43.8309 0.311817 47.6227 -0.0619417 51.4316 0.00852078Z" fill="#1D2B38"/>
<path d="M8.24951 24.5395C10.3616 24.5181 12.4737 24.5021 14.5859 24.4922C15.5666 24.4875 16.5473 24.4811 17.5281 24.4706C18.3831 24.4615 19.238 24.4557 20.0931 24.4536C20.5457 24.4524 20.9981 24.4497 21.4507 24.443C21.8771 24.4368 22.3034 24.4349 22.7299 24.4363C22.8859 24.436 23.042 24.4342 23.198 24.4307C24.3724 24.4056 24.3724 24.4056 24.8592 24.7362C25.0898 24.9636 25.2868 25.1936 25.4819 25.4517C25.593 25.5791 25.7048 25.706 25.8176 25.8319C25.9017 25.9299 25.9017 25.9299 25.9875 26.0298C26.2525 26.3324 26.526 26.6268 26.7996 26.9216C27.1252 27.2725 27.4495 27.6237 27.7626 27.9859C28.1232 28.4027 28.4981 28.8057 28.8726 29.2099C29.3354 29.7098 29.7917 30.2152 30.2461 30.7228C30.7372 31.2705 31.2306 31.8159 31.7286 32.3573C32.0284 32.6832 32.3261 33.0103 32.6155 33.3456C33.0049 33.7952 33.4126 34.2275 33.8182 34.6623C34.1597 35.029 34.4941 35.4002 34.8215 35.7796C35.1301 36.1296 35.4488 36.4705 35.766 36.8128C36.1504 37.2279 36.5299 37.6469 36.9074 38.0682C37.1728 38.3626 37.4409 38.6544 37.7092 38.946C38.011 39.2742 38.3108 39.6035 38.6025 39.9407C38.9656 40.3595 39.3426 40.765 39.7193 41.1715C40.1036 41.5865 40.4832 42.0056 40.8607 42.4269C41.1261 42.7213 41.3942 43.0131 41.6625 43.3048C42.0234 43.6972 42.3784 44.0938 42.7277 44.4966C43.0164 44.824 43.3126 45.1446 43.6082 45.4658C43.8975 45.7803 44.1844 46.0967 44.4691 46.4154C44.8623 46.854 45.2637 47.2844 45.6665 47.7142C46.0854 48.1613 46.5007 48.6097 46.8999 49.0747C47.2026 49.4209 47.5174 49.7562 47.8304 50.0931C48.0344 50.3276 48.2215 50.5627 48.4067 50.8116C48.488 50.9205 48.488 50.9205 48.5708 51.0316C48.6117 51.0867 48.6527 51.1418 48.6948 51.1986C46.5827 51.2199 44.4707 51.236 42.3585 51.2459C41.3777 51.2506 40.397 51.257 39.4163 51.2674C38.5613 51.2765 37.7063 51.2824 36.8513 51.2844C36.3987 51.2856 35.9462 51.2884 35.4937 51.2951C35.0672 51.3013 34.6409 51.3032 34.2145 51.3018C34.0584 51.302 33.9023 51.3038 33.7463 51.3074C32.572 51.3325 32.572 51.3325 32.0854 51.0021C31.8547 50.7747 31.6577 50.5445 31.4625 50.2863C31.3492 50.1568 31.2353 50.0278 31.1204 49.8999C31.0642 49.8344 31.008 49.7689 30.9501 49.7015C30.7035 49.4188 30.4497 49.143 30.1954 48.8672C29.8893 48.5349 29.585 48.2017 29.2894 47.8599C28.9264 47.4411 28.5494 47.0356 28.1727 46.6291C27.7883 46.214 27.4087 45.795 27.0313 45.3737C26.7659 45.0793 26.4978 44.7875 26.2294 44.4958C25.9276 44.1677 25.6279 43.8383 25.3361 43.5012C24.9732 43.0825 24.5963 42.6772 24.2198 42.2708C23.757 41.771 23.3007 41.2655 22.8463 40.758C22.0791 39.9022 21.3036 39.0543 20.5252 38.2088C19.7204 37.3339 19.7204 37.3339 19.3555 36.9124C19.04 36.5483 18.7137 36.1949 18.3862 35.8417C18.0019 35.4273 17.6233 35.0095 17.2533 34.5822C16.8762 34.1533 16.487 33.7352 16.1002 33.315C15.8609 33.0551 15.622 32.795 15.3832 32.5347C15.3366 32.4839 15.2901 32.4332 15.2421 32.3809C14.9558 32.0684 14.6715 31.7542 14.3885 31.4387C14.0351 31.0447 13.6774 30.655 13.3178 30.2666C12.806 29.7135 12.3002 29.1554 11.7973 28.5941C11.6411 28.4209 11.4848 28.2477 11.3285 28.0746C11.07 27.7877 10.814 27.4992 10.5619 27.2066C10.2015 26.7927 9.82753 26.3916 9.45324 25.9903C9.39259 25.9252 9.33193 25.8601 9.26944 25.793C9.00458 25.5099 8.73894 25.2306 8.45937 24.9619C8.24951 24.7422 8.24951 24.7422 8.24951 24.5395Z" fill="#FEFEFD"/>
<path d="M46.2622 24.4376C48.3708 24.4091 50.4793 24.3877 52.588 24.3746C53.5672 24.3683 54.5463 24.3598 55.5255 24.3458C56.3792 24.3337 57.2329 24.3259 58.0867 24.3232C58.5386 24.3216 58.9902 24.3179 59.442 24.309C59.8679 24.3007 60.2936 24.2982 60.7197 24.3C60.8753 24.2997 61.031 24.2973 61.1866 24.2926C61.8191 24.2745 62.418 24.2575 62.9146 24.7003C63.2047 24.9975 63.4493 25.3213 63.6973 25.654C63.8454 25.8204 63.995 25.9854 64.1471 26.1481C64.4469 26.4813 64.7395 26.8195 65.0292 27.1615C65.7168 27.9727 66.4383 28.7476 67.1689 29.52C67.6052 29.9834 68.0324 30.455 68.4615 30.925C68.5586 31.0306 68.6558 31.1362 68.753 31.2418C69.2074 31.7355 69.6578 32.2317 70.0976 32.7385C70.4764 33.1682 70.8664 33.5878 71.2544 34.0092C71.4936 34.2691 71.7325 34.5293 71.9713 34.7896C72.018 34.8404 72.0646 34.8912 72.1127 34.9435C72.4704 35.3339 72.8241 35.7277 73.1771 36.1224C73.3754 36.3404 73.5758 36.5558 73.7781 36.7701C73.8386 36.8345 73.8992 36.8988 73.9615 36.965C74.0819 37.0927 74.2028 37.2201 74.3241 37.347C74.7463 37.7953 74.7463 37.7953 74.7463 38.0206C74.8466 38.054 74.947 38.0875 75.0504 38.122C75.1854 38.2728 75.3131 38.4304 75.4368 38.5908C75.8893 39.1587 76.3742 39.687 76.8724 40.2149C77.1775 40.5385 77.4789 40.863 77.7683 41.2009C78.0876 41.5725 78.4344 41.9127 78.7827 42.257C79.0397 42.5172 79.2786 42.7889 79.5168 43.0663C79.7592 43.3443 80.0083 43.6158 80.2581 43.8871C80.3547 43.9923 80.4513 44.0975 80.5479 44.2027C80.5952 44.2541 80.6424 44.3056 80.6911 44.3586C81.207 44.9204 81.7134 45.4836 82.1904 46.0792C82.5687 46.5473 82.9738 46.9716 83.4076 47.3886C83.6796 47.6635 83.9308 47.9509 84.1839 48.2431C84.5804 48.6931 84.9981 49.1237 85.4115 49.5581C86.5048 50.7119 86.5048 50.7119 86.5048 50.9954C84.398 51.0286 82.2912 51.0536 80.1842 51.0689C79.2058 51.0762 78.2275 51.0862 77.2492 51.1024C76.3961 51.1166 75.5431 51.1257 74.6898 51.1289C74.2383 51.1308 73.7872 51.1351 73.3358 51.1454C70.3649 51.2111 70.3649 51.2111 69.7003 50.6838C69.3766 50.3502 69.1773 49.989 68.9684 49.5763C68.772 49.3494 68.772 49.3494 68.5819 49.1835C68.3423 48.9526 68.1212 48.7134 67.904 48.4612C67.6764 48.197 67.4432 47.9454 67.1944 47.701C66.8937 47.4049 66.6166 47.0948 66.3411 46.7752C66.0733 46.4707 65.7978 46.1737 65.5219 45.8764C64.8251 45.124 64.1577 44.3569 63.5159 43.5565C63.2848 43.2833 63.0395 43.0363 62.785 42.7848C62.534 42.5225 62.2858 42.2576 62.0374 41.9929C61.9317 41.8803 61.9317 41.8803 61.8238 41.7654C61.6768 41.6089 61.5299 41.4523 61.383 41.2958C61.1702 41.0691 60.957 40.8428 60.7438 40.6165C60.6111 40.4755 60.4785 40.3346 60.3458 40.1936C60.2856 40.1298 60.2254 40.066 60.1634 40.0003C59.6054 39.4064 59.0551 38.8059 58.5656 38.1536C58.3028 37.8121 58.0297 37.507 57.7166 37.2097C57.3559 36.8585 57.0053 36.5037 56.6768 36.122C56.3074 35.6972 55.9244 35.2869 55.5373 34.8783C55.0918 34.408 54.6551 33.9325 54.2304 33.4433C54.011 33.1916 53.7861 32.9451 53.5606 32.6989C53.2742 32.3849 52.9897 32.07 52.7117 31.7486C52.2495 31.2172 51.7682 30.7033 51.2894 30.1869C50.5983 29.4417 49.909 28.6953 49.2307 27.9383C48.9654 27.6439 48.6973 27.3521 48.4289 27.0604C48.0649 26.6645 47.7054 26.2654 47.3539 25.8583C47.2142 25.6992 47.0719 25.5423 46.9286 25.3863C46.8446 25.2949 46.7606 25.2034 46.674 25.1091C46.5957 25.0247 46.5175 24.9403 46.4368 24.8534C46.2622 24.6403 46.2622 24.6403 46.2622 24.4376Z" fill="#FEFEFD"/>
<path d="M38.7603 21.1918C41.9714 21.1664 45.1824 21.1467 48.3936 21.1349C48.773 21.1335 49.1523 21.1321 49.5317 21.1306C49.6072 21.1303 49.6827 21.13 49.7606 21.1297C50.9824 21.1249 52.2042 21.1161 53.426 21.1058C54.6802 21.0954 55.9345 21.0892 57.1888 21.0869C57.9624 21.0854 58.7359 21.0806 59.5095 21.0715C60.1033 21.0649 60.697 21.0642 61.2909 21.0657C61.534 21.0654 61.7772 21.0632 62.0203 21.0589C63.9533 21.0266 63.9533 21.0266 64.4652 21.4348C64.7221 21.7133 64.9189 21.9841 65.1156 22.3069C65.2269 22.4401 65.3404 22.5716 65.4577 22.6997C65.514 22.7643 65.5704 22.829 65.6284 22.8957C66.2238 23.5677 66.8396 24.222 67.4557 24.8751C67.5268 24.9503 67.5978 25.0256 67.671 25.1031C67.8092 25.2495 67.9476 25.3956 68.0861 25.5416C68.4697 25.9473 68.8426 26.36 69.2085 26.7816C69.4396 27.0458 69.6786 27.302 69.9179 27.5589C70.2794 27.9492 70.624 28.3471 70.9569 28.7626C71.3054 29.1957 71.6741 29.5898 72.0759 29.9738C72.2744 30.1747 72.4595 30.3791 72.6445 30.5923C73.0286 31.0353 73.4292 31.461 73.8331 31.8859C74.2966 32.3733 74.7518 32.8652 75.1925 33.3733C75.4112 33.6245 75.6356 33.8703 75.8605 34.116C76.1465 34.4283 76.4286 34.7433 76.7063 35.0631C77.0731 35.4836 77.4534 35.8902 77.8371 36.2953C78.2252 36.705 78.6108 37.1164 78.987 37.537C79.0436 37.6003 79.1003 37.6635 79.1587 37.7287C79.3078 37.9183 79.4101 38.1036 79.5097 38.3226C79.5766 38.3226 79.6435 38.3226 79.7124 38.3226C79.8839 38.4893 79.8839 38.4893 80.0735 38.7091C80.1364 38.7808 80.1992 38.8526 80.264 38.9265C80.422 39.1335 80.422 39.1335 80.5233 39.4376C80.5902 39.4376 80.6571 39.4376 80.7261 39.4376C80.869 39.5794 80.869 39.5794 81.0365 39.7798C81.6928 40.5511 82.3781 41.296 83.0636 42.0413C83.3127 42.3126 83.5584 42.586 83.7988 42.8651C84.1385 43.2576 84.4946 43.6339 84.8504 44.0118C85.3094 44.4997 85.7557 44.9946 86.1872 45.5069C86.7203 46.1394 87.2818 46.7421 87.8528 47.3405C88.2336 47.7403 88.6029 48.147 88.9646 48.5642C89.2518 48.8911 89.5506 49.2069 89.8491 49.5235C90.2685 49.9705 90.683 50.4195 91.0829 50.884C91.3382 51.1743 91.601 51.4574 91.8637 51.7409C92.3799 52.2981 92.8921 52.8585 93.3969 53.4261C93.46 53.4964 93.5231 53.5667 93.5882 53.6391C94.0051 54.1115 94.0051 54.1115 94.0051 54.3384C90.8087 54.3662 87.6122 54.3877 84.4157 54.4005C84.038 54.402 83.6602 54.4036 83.2825 54.4052C83.2074 54.4055 83.1322 54.4058 83.0547 54.4062C81.8385 54.4115 80.6224 54.4211 79.4062 54.4322C78.1575 54.4436 76.9089 54.4504 75.6602 54.4528C74.8901 54.4545 74.1203 54.4598 73.3503 54.4697C72.759 54.4769 72.1678 54.4776 71.5765 54.476C71.3346 54.4763 71.0926 54.4787 70.8507 54.4834C68.9276 54.5187 68.9276 54.5187 68.3781 54.0707C68.0897 53.7845 67.8691 53.4638 67.6498 53.122C67.5445 53.0014 67.4367 52.8828 67.3247 52.7684C67.187 52.6192 67.0493 52.4699 66.9118 52.3206C66.6339 52.0195 66.3544 51.72 66.073 51.4221C65.458 50.7701 64.8659 50.1148 64.3063 49.4142C64.0494 49.1056 63.7699 48.828 63.4823 48.5483C63.2342 48.3013 63.0079 48.0388 62.7794 47.7738C62.1162 47.0137 61.4209 46.2812 60.7315 45.5449C60.3168 45.1019 59.9063 44.657 59.5103 44.1971C59.2877 43.9417 59.0593 43.6919 58.8309 43.4416C58.5444 43.1276 58.2599 42.8127 57.9819 42.4913C57.612 42.0652 57.2276 41.6529 56.8439 41.2393C56.5767 40.9507 56.3125 40.6608 56.056 40.3626C55.7078 39.9596 55.3431 39.5726 54.9789 39.1842C54.5597 38.7371 54.1451 38.2883 53.7451 37.8237C53.4379 37.4745 53.1202 37.1351 52.8041 36.794C52.4197 36.379 52.0402 35.9599 51.6627 35.5386C51.3974 35.2442 51.1293 34.9525 50.8609 34.6608C50.5591 34.3327 50.2593 34.0033 49.9676 33.6661C49.6045 33.2473 49.2275 32.8419 48.8508 32.4354C48.4662 32.02 48.0865 31.6007 47.7086 31.1791C47.4476 30.8894 47.1841 30.6019 46.9203 30.3147C46.3523 29.6964 45.7908 29.0724 45.2303 28.4474C44.8162 27.9863 44.3999 27.5275 43.9806 27.071C43.4161 26.4564 42.8569 25.8371 42.3014 25.2144C41.8329 24.6908 41.3566 24.1753 40.8763 23.6626C40.3974 23.1513 39.9266 22.6354 39.4698 22.1041C39.371 21.9928 39.371 21.9928 39.2703 21.8792C39.1715 21.7679 39.1715 21.7679 39.0707 21.6543C39.0112 21.5875 38.9518 21.5208 38.8905 21.452C38.7603 21.2932 38.7603 21.2932 38.7603 21.1918ZM46.2614 24.4355C46.4505 24.8435 46.7208 25.1387 47.028 25.4619C47.1386 25.5799 47.2492 25.6981 47.3598 25.8162C47.4417 25.9034 47.4417 25.9034 47.5252 25.9924C47.8872 26.3801 48.239 26.7772 48.5928 27.1724C49.1273 27.7685 49.6649 28.3615 50.2066 28.9509C50.4924 29.2621 50.7757 29.5753 51.0573 29.8903C51.4505 30.3288 51.8519 30.7593 52.2547 31.189C52.6761 31.6388 53.0936 32.0901 53.496 32.5571C53.8489 32.964 54.2126 33.3614 54.5735 33.7612C54.7255 33.9301 54.8776 34.099 55.0296 34.268C55.1055 34.3523 55.1814 34.4366 55.2597 34.5234C55.4054 34.6855 55.5509 34.8478 55.696 35.0104C56.1641 35.5339 56.6402 36.049 57.1203 36.5614C57.5393 37.0086 57.9542 37.4574 58.3541 37.9219C58.5768 38.1773 58.8052 38.4271 59.0336 38.6774C59.32 38.9914 59.6045 39.3063 59.8825 39.6277C60.5219 40.3623 61.191 41.0711 61.858 41.7805C61.9245 41.8513 61.991 41.922 62.0596 41.9949C62.1881 42.1316 62.3168 42.268 62.4456 42.4044C62.8157 42.7974 63.1752 43.1977 63.5292 43.6052C63.7662 43.8761 64.0097 44.1402 64.254 44.4046C64.6239 44.8061 64.9884 45.2115 65.3464 45.6237C66.2178 46.6216 67.1188 47.5953 68.0299 48.557C68.1278 48.6605 68.1278 48.6605 68.2276 48.7662C68.3522 48.8979 68.4771 49.0292 68.6023 49.1603C68.6614 49.2228 68.7205 49.2853 68.7814 49.3497C68.8699 49.4419 68.8699 49.4419 68.9602 49.536C69.1703 49.7769 69.1703 49.7769 69.3733 50.0799C69.837 50.7423 69.837 50.7423 70.5366 51.1039C70.9616 51.1429 71.3713 51.1442 71.7971 51.1314C71.9581 51.1311 72.119 51.1313 72.2799 51.132C72.7142 51.1323 73.148 51.1252 73.5822 51.1167C74.0369 51.109 74.4916 51.1083 74.9463 51.1069C75.8062 51.1031 76.6658 51.0932 77.5256 51.0809C78.5049 51.0673 79.4843 51.0606 80.4637 51.0545C82.4772 51.0418 84.4906 51.0205 86.504 50.9933C86.343 50.656 86.1626 50.414 85.9085 50.1381C85.8265 50.0487 85.7446 49.9593 85.6602 49.8672C85.5707 49.7705 85.4812 49.6738 85.3889 49.5742C85.2953 49.4723 85.2018 49.3705 85.1082 49.2685C84.6173 48.7344 84.1232 48.2033 83.6276 47.6735C82.8423 46.834 82.0692 45.9853 81.3137 45.1189C80.7208 44.4435 80.1134 43.7812 79.5047 43.12C79.244 42.8362 78.9879 42.5493 78.7368 42.2569C78.4105 41.8799 78.0585 41.5329 77.7041 41.1826C77.4423 40.9176 77.1981 40.6413 76.9557 40.3586C76.7508 40.1218 76.5403 39.8908 76.3293 39.6594C75.9106 39.1976 75.5204 38.7169 75.1355 38.2268C75.0428 38.1237 75.0428 38.1237 74.9482 38.0185C74.8813 38.0185 74.8144 38.0185 74.7454 38.0185C74.7189 37.9593 74.6924 37.9001 74.665 37.8392C74.5358 37.6002 74.3951 37.435 74.2073 37.2393C74.1405 37.1691 74.0737 37.0988 74.0048 37.0265C73.9335 36.9524 73.8622 36.8784 73.7888 36.8021C73.6409 36.6468 73.4931 36.4915 73.3453 36.3361C73.2728 36.26 73.2003 36.184 73.1256 36.1056C72.4482 35.3917 71.7912 34.6588 71.1346 33.9259C70.9573 33.7302 70.7788 33.536 70.5985 33.343C70.1206 32.8309 69.6517 32.32 69.2146 31.7719C68.8184 31.2779 68.3857 30.835 67.9309 30.3959C67.6489 30.1111 67.3878 29.815 67.1257 29.5121C66.824 29.1689 66.5075 28.8401 66.1926 28.5092C65.7684 28.0606 65.3539 27.612 64.9699 27.1281C64.4953 26.5305 63.9697 25.9835 63.4425 25.4326C63.375 25.3619 63.3075 25.2912 63.2379 25.2183C63.1471 25.1239 63.1471 25.1239 63.0545 25.0275C62.8855 24.841 62.8855 24.841 62.7639 24.6297C62.5914 24.407 62.5914 24.407 62.2891 24.3856C62.109 24.3862 62.109 24.3862 61.9253 24.3868C61.8584 24.3864 61.7915 24.3861 61.7226 24.3857C61.4979 24.3851 61.2734 24.3873 61.0488 24.3895C60.888 24.3896 60.7271 24.3896 60.5663 24.3893C60.1292 24.3892 59.6922 24.3916 59.2551 24.3944C58.7985 24.397 58.3419 24.3972 57.8853 24.3977C57.0205 24.3989 56.1557 24.4023 55.2909 24.4063C54.3064 24.4109 53.3219 24.4131 52.3374 24.4151C50.3121 24.4194 48.2867 24.4265 46.2614 24.4355Z" fill="#A6A6A8"/>
<path d="M0.849609 21.2965C4.04781 21.2734 7.24598 21.2555 10.4442 21.2448C10.8221 21.2435 11.1999 21.2422 11.5778 21.2408C11.6906 21.2404 11.6906 21.2404 11.8057 21.24C13.0226 21.2356 14.2395 21.2276 15.4564 21.2183C16.7056 21.2088 17.9548 21.2032 19.2041 21.2012C19.9746 21.1998 20.7449 21.1954 21.5154 21.1871C22.1068 21.1811 22.6982 21.1805 23.2897 21.1819C23.5318 21.1816 23.774 21.1796 24.0161 21.1757C25.9403 21.1463 25.9403 21.1463 26.4524 21.5161C26.7086 21.7679 26.9053 22.0119 27.1036 22.3102C27.218 22.4427 27.3338 22.5739 27.452 22.703C27.5349 22.7998 27.5349 22.7998 27.6195 22.8986C27.8647 23.1803 28.1175 23.4548 28.3707 23.7293C28.6767 24.0616 28.9811 24.3949 29.2766 24.7366C29.6396 25.1553 30.0164 25.5606 30.393 25.967C30.9292 26.5461 31.4563 27.1333 31.9827 27.7214C32.4177 28.2063 32.8568 28.6871 33.2996 29.165C33.6189 29.5097 33.9366 29.8546 34.2436 30.2104C34.5742 30.593 34.9187 30.962 35.2636 31.3317C35.6664 31.7635 36.064 32.1977 36.4499 32.6447C36.7357 32.9703 37.03 33.2881 37.3233 33.6068C37.6126 33.9213 37.8995 34.2378 38.1842 34.5564C38.5775 34.995 38.9789 35.4254 39.3816 35.8552C39.7985 36.3001 40.211 36.7467 40.6087 37.2089C40.8498 37.4841 41.0978 37.7528 41.3456 38.0219C41.6537 38.3564 41.9601 38.6918 42.2579 39.0355C42.6889 39.5321 43.1356 40.0142 43.5809 40.4979C43.8202 40.7578 44.0591 41.0179 44.2979 41.2782C44.3445 41.329 44.391 41.3797 44.439 41.432C44.7254 41.7445 45.0096 42.0587 45.2926 42.3742C45.65 42.7727 46.0121 43.1664 46.3759 43.5589C46.756 43.9692 47.1301 44.383 47.4961 44.8058C47.8737 45.2351 48.2633 45.6537 48.6506 46.0743C48.8374 46.2774 49.0237 46.4809 49.21 46.6844C49.6473 47.1621 50.086 47.6385 50.5256 48.1141C51.2493 48.8974 51.971 49.6821 52.6706 50.487C52.9571 50.8138 53.2492 51.1355 53.5405 51.4579C53.7397 51.6802 53.9356 51.9047 54.1305 52.1307C54.3542 52.3879 54.5845 52.6328 54.8274 52.8719C55.7989 53.8303 55.7989 53.8303 56.0945 54.4431C52.8816 54.4685 49.6688 54.4883 46.4559 54.5C46.0764 54.5014 45.6969 54.5029 45.3175 54.5043C45.2419 54.5046 45.1664 54.5049 45.0885 54.5052C43.866 54.5101 42.6435 54.5189 41.4209 54.5291C40.1661 54.5395 38.9113 54.5457 37.6564 54.548C36.8823 54.5495 36.1083 54.5543 35.3343 54.5634C34.7403 54.57 34.1464 54.5707 33.5524 54.5692C33.309 54.5695 33.0657 54.5717 32.8224 54.576C30.8847 54.6084 30.8847 54.6084 30.4155 54.2013C30.1843 53.9204 30.0157 53.6456 29.8405 53.3281C29.6313 53.0948 29.6313 53.0948 29.4224 52.9036C29.1059 52.5959 28.8145 52.2762 28.5267 51.9418C28.2645 51.6429 27.9948 51.3515 27.7245 51.06C27.137 50.426 26.5575 49.7854 25.9822 49.1404C25.5136 48.6167 25.0372 48.101 24.5568 47.5882C24.1378 47.141 23.7228 46.6922 23.3229 46.2277C23.1002 45.9723 22.8718 45.7225 22.6435 45.4722C22.357 45.1583 22.0725 44.8433 21.7945 44.5219C21.3307 43.9884 20.8469 43.4731 20.3665 42.9546C20.0338 42.5948 19.7033 42.2332 19.3724 41.8718C19.1829 41.6648 18.9931 41.4581 18.803 41.2517C18.528 40.9529 18.254 40.6534 17.9806 40.3533C17.8696 40.2315 17.8696 40.2315 17.7565 40.1074C17.6924 40.0359 17.6284 39.9644 17.5624 39.8908C17.5078 39.83 17.4532 39.7693 17.3969 39.7067C17.271 39.5423 17.271 39.5423 17.1697 39.2382C17.1027 39.2382 17.0358 39.2382 16.9669 39.2382C16.826 39.0785 16.692 38.9124 16.5615 38.7441C16.1688 38.2523 15.7542 37.808 15.2999 37.3713C15.0262 37.0947 14.7733 36.8054 14.5186 36.5114C14.2162 36.1678 13.8993 35.8382 13.5838 35.5067C13.065 34.9584 12.5763 34.4009 12.1061 33.8104C11.8243 33.4728 11.5146 33.1694 11.2001 32.8625C10.9432 32.6065 10.7075 32.3367 10.4711 32.0619C9.9364 31.4476 9.37902 30.8523 8.82076 30.2595C8.16971 29.5676 7.5334 28.8673 6.91518 28.1459C6.47507 27.6342 6.01951 27.1386 5.55816 26.6461C5.28644 26.3558 5.01786 26.0645 4.75856 25.763C4.36088 25.3021 3.94229 24.8608 3.52627 24.4166C2.96746 23.8199 2.4142 23.2184 1.86328 22.6143C1.73058 22.4708 1.73058 22.4708 1.59521 22.3244C1.47075 22.1888 1.47075 22.1888 1.34377 22.0504C1.27034 21.9709 1.1969 21.8913 1.12124 21.8093C0.950976 21.6006 0.950976 21.6006 0.849609 21.2965ZM8.24938 24.5402C8.22625 24.7661 8.22625 24.7661 8.44578 24.952C8.54905 25.0515 8.65257 25.1507 8.75621 25.2498C9.25031 25.7337 9.7304 26.222 10.1809 26.7469C10.4275 27.0296 10.6813 27.3054 10.9356 27.5812C11.2417 27.9135 11.546 28.2467 11.8416 28.5885C12.2047 29.0074 12.5818 29.413 12.9586 29.8195C13.2668 30.1523 13.5726 30.487 13.8752 30.8249C14.2265 31.2168 14.5821 31.6044 14.9396 31.9906C15.3714 32.457 15.7987 32.9269 16.2225 33.4006C16.3985 33.5951 16.5757 33.7879 16.7547 33.9795C17.2348 34.4939 17.7056 35.0074 18.1453 35.5574C18.5237 36.0291 18.9342 36.4514 19.3661 36.874C19.6315 37.1385 19.8762 37.4152 20.12 37.6995C20.3567 37.9718 20.6 38.2378 20.8442 38.5033C20.9153 38.5807 20.9153 38.5807 20.9879 38.6596C21.0853 38.7656 21.1828 38.8715 21.2803 38.9774C22.0841 39.8506 22.8821 40.7288 23.6745 41.6124C24.0886 42.0735 24.505 42.5324 24.9242 42.9888C25.4922 43.6071 26.0536 44.2311 26.6142 44.8561C27.0754 45.3697 27.5401 45.8801 28.0071 46.3884C28.3737 46.7877 28.7365 47.1903 29.0985 47.5938C29.3652 47.8892 29.6344 48.1823 29.9038 48.4752C30.2636 48.8664 30.6177 49.2618 30.9658 49.6635C31.6544 50.4462 31.6544 50.4462 32.3747 51.1994C32.5851 51.2092 32.7958 51.2117 33.0064 51.2116C33.0732 51.2117 33.1399 51.2117 33.2086 51.2118C33.4339 51.212 33.6591 51.2114 33.8843 51.2109C34.0451 51.2109 34.2059 51.2109 34.3667 51.2109C34.8046 51.211 35.2425 51.2104 35.6804 51.2097C36.1376 51.209 36.5947 51.209 37.0518 51.2088C37.9181 51.2085 38.7844 51.2077 39.6506 51.2067C40.6366 51.2055 41.6225 51.205 42.6085 51.2045C44.6372 51.2034 46.666 51.2016 48.6947 51.1994C48.5978 51.0691 48.5007 50.9389 48.4035 50.8088C48.3495 50.7362 48.2954 50.6637 48.2397 50.589C48.0702 50.3672 47.8905 50.1622 47.6973 49.9608C47.6293 49.8893 47.5612 49.8179 47.4912 49.7442C47.4221 49.6725 47.3531 49.6008 47.2819 49.5268C46.817 49.0411 46.3605 48.5517 45.9201 48.0435C45.6783 47.7663 45.4289 47.4965 45.1785 47.2271C45.073 47.1131 44.9674 46.999 44.8618 46.885C44.8085 46.8275 44.7551 46.77 44.7002 46.7108C43.9307 45.8809 43.1652 45.0481 42.41 44.2052C42.2537 44.032 42.0974 43.8588 41.9411 43.6857C41.6826 43.3988 41.4267 43.1102 41.1746 42.8177C40.7583 42.3391 40.3216 41.8796 39.8878 41.417C39.5328 41.0376 39.1844 40.6545 38.8455 40.2606C38.5859 39.9657 38.3184 39.6783 38.0512 39.3903C37.7256 39.0393 37.4013 38.6882 37.0882 38.3259C36.7275 37.909 36.3525 37.5058 35.9778 37.1015C35.5934 36.6864 35.2138 36.2674 34.8364 35.8461C34.571 35.5517 34.3029 35.2599 34.0345 34.9682C33.7347 34.6423 33.437 34.3151 33.1476 33.9799C32.7582 33.5303 32.3506 33.098 31.9449 32.6632C31.6037 32.2968 31.2695 31.9259 30.9425 31.5467C30.6814 31.2508 30.4129 30.9621 30.1446 30.6728C29.819 30.3218 29.4947 29.9707 29.1816 29.6085C28.8211 29.1917 28.4461 28.7887 28.0716 28.3845C27.6088 27.8846 27.1525 27.3792 26.6981 26.8716C26.1941 26.3095 25.6878 25.7494 25.1776 25.1928C25.1288 25.1395 25.08 25.0863 25.0298 25.0315C24.7287 24.6497 24.7287 24.6497 24.3021 24.5278C24.1818 24.5278 24.0616 24.5279 23.9377 24.528C23.8376 24.5279 23.8376 24.5279 23.7354 24.5278C23.5102 24.5276 23.285 24.5282 23.0598 24.5287C22.899 24.5287 22.7382 24.5287 22.5774 24.5287C22.1395 24.5286 21.7016 24.5292 21.2637 24.53C20.8065 24.5306 20.3494 24.5306 19.8923 24.5308C19.026 24.5311 18.1597 24.5319 17.2935 24.5329C16.3075 24.5341 15.3216 24.5346 14.3356 24.5351C12.3069 24.5362 10.2781 24.538 8.24938 24.5402Z" fill="#A6A6A8"/>
<path d="M68.9534 55.5189C69.0688 55.5191 69.0688 55.5191 69.1864 55.5193C69.3195 55.5184 69.3195 55.5184 69.4552 55.5175C69.6022 55.5188 69.6022 55.5188 69.7522 55.5201C69.8558 55.5199 69.9595 55.5196 70.0663 55.5194C70.4159 55.5188 70.7654 55.5205 71.115 55.5222C71.3647 55.5223 71.6144 55.5222 71.8641 55.5221C72.4029 55.522 72.9416 55.5228 73.4803 55.5246C74.2593 55.527 75.0382 55.5278 75.8171 55.5282C77.0808 55.5289 78.3445 55.5309 79.6082 55.5338C80.8359 55.5366 82.0637 55.5387 83.2914 55.54C83.4049 55.5401 83.4049 55.5401 83.5206 55.5402C83.9001 55.5406 84.2796 55.541 84.659 55.5414C87.8085 55.5446 90.9579 55.5499 94.1074 55.5567C93.9047 55.8608 93.9047 55.8608 93.717 55.8986C93.6016 55.8984 93.6016 55.8984 93.484 55.8982C93.3509 55.8991 93.3509 55.8991 93.2152 55.9001C93.0682 55.8987 93.0682 55.8987 92.9182 55.8974C92.8146 55.8976 92.7109 55.8979 92.6041 55.8982C92.2545 55.8987 91.905 55.897 91.5554 55.8953C91.3057 55.8952 91.056 55.8953 90.8063 55.8955C90.2675 55.8955 89.7288 55.8947 89.1901 55.893C88.4111 55.8905 87.6322 55.8897 86.8533 55.8893C85.5896 55.8886 84.3259 55.8866 83.0622 55.8837C81.8345 55.881 80.6067 55.8788 79.379 55.8775C79.2655 55.8774 79.2655 55.8774 79.1498 55.8773C78.7703 55.8769 78.3908 55.8765 78.0114 55.8761C74.8619 55.873 71.7124 55.8676 68.563 55.8608C68.7657 55.5567 68.7657 55.5567 68.9534 55.5189Z" fill="#495460"/>
<path d="M62.6847 60.3209C62.7516 60.3544 62.8185 60.3878 62.8874 60.4223C62.6867 60.623 62.486 60.8237 62.2792 61.0305C62.1788 60.997 62.0785 60.9636 61.9751 60.9291C62.2093 60.7284 62.4434 60.5277 62.6847 60.3209Z" fill="#47515C"/>
</svg>
