<svg width="77" height="76" viewBox="0 0 77 76" fill="none" xmlns="http://www.w3.org/2000/svg">
<path d="M34.7146 44.2123C34.9465 44.3139 35.084 44.447 35.2621 44.6269C35.3331 44.6979 35.4041 44.769 35.4772 44.8421C35.5528 44.9192 35.6284 44.9963 35.7063 45.0757C35.8236 45.1936 35.8236 45.1936 35.9432 45.3139C36.193 45.5653 36.4417 45.8176 36.6904 46.07C36.8595 46.2405 37.0286 46.4109 37.1979 46.5813C37.6127 46.9993 38.0266 47.4181 38.44 47.8375C38.8205 47.6633 39.0262 47.441 39.3028 47.1245C39.7514 46.6208 40.2243 46.1688 40.7266 45.718C41.2631 45.2317 41.7665 44.7101 42.2746 44.1946C42.6049 44.3368 42.8187 44.5233 43.0718 44.777C43.1538 44.8587 43.2358 44.9404 43.3203 45.0246C43.4104 45.1154 43.5004 45.2061 43.5905 45.2969C43.6859 45.3924 43.7813 45.4878 43.8768 45.5832C44.1357 45.842 44.394 46.1014 44.6522 46.3609C44.9222 46.6321 45.1927 46.9028 45.4632 47.1735C45.9752 47.6861 46.4868 48.1993 46.9981 48.7125C47.5804 49.2969 48.1632 49.8808 48.746 50.4646C49.9448 51.6654 51.1429 52.8669 52.3406 54.0688C51.7453 54.7735 51.7453 54.7735 51.417 55.0916C51.3244 55.1818 51.3244 55.1818 51.2301 55.2738C51.1334 55.3675 51.1334 55.3675 51.0348 55.463C50.8964 55.5988 50.758 55.7347 50.6197 55.8706C50.4035 56.0826 50.187 56.2942 49.9695 56.5049C49.7583 56.7097 49.5486 56.9161 49.3392 57.1227C49.2734 57.1857 49.2076 57.2487 49.1398 57.3137C49.0802 57.3729 49.0207 57.4321 48.9593 57.4931C48.8798 57.5706 48.8798 57.5706 48.7987 57.6496C48.679 57.8029 48.679 57.8029 48.7082 57.9959C48.8135 58.2366 48.9433 58.3753 49.13 58.5602C49.201 58.6312 49.2721 58.7022 49.3452 58.7753C49.4223 58.8509 49.4994 58.9265 49.5788 59.0044C49.6967 59.1217 49.6967 59.1217 49.817 59.2414C50.0683 59.4911 50.3207 59.7399 50.5731 59.9886C50.7436 60.1577 50.914 60.3268 51.0844 60.496C51.5024 60.9108 51.9212 61.3248 52.3406 61.7381C52.1629 62.1287 51.9027 62.3684 51.5857 62.6489C51.1448 63.0474 50.7119 63.4512 50.2915 63.8712C50.1598 64.0024 50.1598 64.0024 50.0256 64.1363C49.8304 64.3362 49.6476 64.5434 49.4665 64.7561C48.9806 65.3161 48.4507 65.834 47.9258 66.3572C47.7454 66.5371 47.5655 66.7174 47.3857 66.8979C46.8688 67.4151 46.3529 67.9264 45.7957 68.4007C45.5012 68.6565 45.2277 68.9331 44.9529 69.2097C44.898 69.2643 44.843 69.3189 44.7865 69.3751C44.5101 69.652 44.245 69.9335 43.9912 70.2313C43.522 70.7736 43.0101 71.2747 42.5024 71.7806C42.3289 71.9535 42.156 72.127 41.9831 72.3005C41.4797 72.8042 40.9763 73.3003 40.434 73.7624C40.1103 74.0453 39.8094 74.3514 39.5065 74.6561C39.443 74.7193 39.3795 74.7824 39.314 74.8475C39.2532 74.9084 39.1924 74.9694 39.1298 75.0321C39.0754 75.0866 39.0211 75.1411 38.9651 75.1972C38.8038 75.3646 38.8038 75.3646 38.6317 75.6388C38.241 75.4834 37.9792 75.2042 37.689 74.9108C37.6335 74.8555 37.5779 74.8001 37.5207 74.7431C37.3347 74.5573 37.1493 74.3709 36.9639 74.1844C36.8307 74.0512 36.6975 73.918 36.5642 73.7848C36.2023 73.423 35.8411 73.0606 35.4799 72.6981C35.1024 72.3194 34.7244 71.9413 34.3464 71.5631C33.6307 70.8468 32.9154 70.1299 32.2003 69.4129C31.3863 68.5967 30.5717 67.781 29.757 66.9654C28.0811 65.2875 26.4059 63.6089 24.7311 61.9299C24.873 61.633 25.0156 61.4309 25.2511 61.1994C25.318 61.1332 25.3848 61.067 25.4537 60.9988C25.5618 60.893 25.5618 60.893 25.6722 60.7851C25.7462 60.7118 25.8201 60.6386 25.8964 60.5631C26.1326 60.3292 26.3695 60.0959 26.6065 59.8628C26.9187 59.5556 27.2303 59.2478 27.5416 58.9397C27.65 58.8336 27.65 58.8336 27.7607 58.7254C27.8272 58.6595 27.8938 58.5936 27.9623 58.5257C28.0211 58.4678 28.08 58.41 28.1406 58.3505C28.3001 58.1861 28.3001 58.1861 28.374 57.9035C27.1402 56.6697 25.9064 55.4359 24.6353 54.1647C25.2825 53.4096 25.2825 53.4096 25.6301 53.0593C25.7478 52.9403 25.7478 52.9403 25.8679 52.8189C25.9522 52.7342 26.0365 52.6496 26.1233 52.5623C26.2144 52.4704 26.3055 52.3786 26.3965 52.2867C26.6931 51.9876 26.9902 51.6891 27.2873 51.3906C27.3899 51.2874 27.4925 51.1843 27.5951 51.0812C28.0216 50.6526 28.4482 50.2242 28.8752 49.7962C29.4861 49.1837 30.0962 48.5704 30.7051 47.956C31.1343 47.5232 31.5643 47.0913 31.995 46.66C32.2521 46.4026 32.5087 46.1448 32.7644 45.8861C33.0043 45.6433 33.2453 45.4017 33.4872 45.1609C33.6183 45.0298 33.7482 44.8976 33.878 44.7653C33.956 44.6882 34.0339 44.611 34.1142 44.5316C34.1817 44.4638 34.2492 44.396 34.3187 44.3261C34.5095 44.1946 34.5095 44.1946 34.7146 44.2123Z" fill="#1E2C39"/>
<path d="M14.3778 23.9668C14.6835 24.1013 14.8837 24.2595 15.1155 24.4986C15.1834 24.568 15.2512 24.6374 15.3211 24.7089C15.3934 24.7837 15.4657 24.8585 15.5402 24.9356C15.6944 25.0927 15.8487 25.2498 16.003 25.4069C16.2459 25.6551 16.4884 25.9036 16.7301 26.153C16.9635 26.3933 17.1984 26.6322 17.4336 26.8709C17.5059 26.9463 17.5782 27.0216 17.6527 27.0993C17.7205 27.1678 17.7883 27.2363 17.8582 27.3068C17.9472 27.3983 17.9472 27.3983 18.0379 27.4915C18.2037 27.6291 18.2037 27.6291 18.4035 27.6018C18.6401 27.4937 18.7797 27.3633 18.962 27.1774C19.0676 27.0709 19.0676 27.0709 19.1753 26.9622C19.2503 26.8851 19.3253 26.808 19.4026 26.7286C19.5192 26.6107 19.5192 26.6107 19.6381 26.4904C19.8866 26.2391 20.1341 25.9868 20.3814 25.7343C20.6296 25.4816 20.8779 25.2291 21.1268 24.9772C21.2818 24.8204 21.4363 24.663 21.5903 24.5051C21.6601 24.4344 21.7298 24.3637 21.8017 24.2909C21.8631 24.2282 21.9246 24.1654 21.9878 24.1008C22.143 23.9668 22.143 23.9668 22.3347 23.9668C22.4679 24.1018 22.4679 24.1018 22.6247 24.292C23.0352 24.7744 23.4782 25.2188 23.9268 25.6656C24.0176 25.7564 24.1083 25.8472 24.1991 25.938C24.4432 26.1822 24.6877 26.426 24.9322 26.6699C25.1885 26.9256 25.4446 27.1816 25.7006 27.4375C26.1846 27.9212 26.6688 28.4046 27.153 28.8879C27.7048 29.4386 28.2562 29.9895 28.8077 30.5405C29.9411 31.6729 31.0749 32.805 32.2089 33.9369C32.1172 34.0445 32.0253 34.152 31.9335 34.2595C31.8823 34.3194 31.8312 34.3793 31.7785 34.441C31.6151 34.6295 31.4452 34.8089 31.269 34.9855C31.2051 35.0495 31.1412 35.1135 31.0754 35.1794C31.0105 35.2439 30.9456 35.3084 30.8788 35.3749C30.8147 35.4394 30.7505 35.5039 30.6844 35.5704C30.3046 35.9495 29.9151 36.31 29.5049 36.6562C29.269 36.8712 29.0723 37.1104 28.8753 37.3608C28.8365 37.4014 28.7977 37.4421 28.7578 37.484C28.6945 37.484 28.6312 37.484 28.566 37.484C28.539 37.7693 28.532 37.9156 28.7013 38.153C28.7646 38.2138 28.8279 38.2746 28.8931 38.3372C28.9645 38.407 29.0358 38.4767 29.1093 38.5486C29.1872 38.6225 29.2651 38.6964 29.3453 38.7726C29.4243 38.8497 29.5032 38.9268 29.5846 39.0063C29.8371 39.253 30.0911 39.4981 30.3455 39.7428C30.6806 40.0651 31.014 40.389 31.3465 40.7138C31.4246 40.788 31.5027 40.8621 31.5831 40.9384C31.6541 41.0078 31.7252 41.0773 31.7983 41.1488C31.8616 41.2095 31.9248 41.2703 31.9899 41.3328C32.1131 41.5104 32.1131 41.5104 32.0964 41.6873C31.9928 41.9575 31.8448 42.103 31.6407 42.3082C31.5596 42.3903 31.4786 42.4724 31.3951 42.5571C31.3055 42.6464 31.2159 42.7357 31.1236 42.8277C31.0287 42.9233 30.934 43.0189 30.8392 43.1145C30.5818 43.3741 30.3235 43.6327 30.0649 43.891C29.8493 44.1067 29.6341 44.3227 29.4189 44.5387C28.9113 45.0481 28.403 45.5567 27.8942 46.0648C27.3688 46.5896 26.8448 47.1158 26.3215 47.6427C25.8725 48.0947 25.4225 48.5457 24.9718 48.996C24.7025 49.2652 24.4335 49.5346 24.1655 49.805C23.9136 50.0591 23.6605 50.312 23.4066 50.564C23.3134 50.6568 23.2206 50.7501 23.1283 50.8437C23.0026 50.9712 22.8752 51.0971 22.7478 51.2229C22.6768 51.2939 22.6059 51.3648 22.5328 51.438C22.3347 51.5763 22.3347 51.5763 22.1285 51.5596C21.8982 51.4568 21.7596 51.3233 21.5821 51.144C21.5111 51.073 21.4401 51.002 21.367 50.9288C21.2914 50.8517 21.2158 50.7746 21.1379 50.6952C21.0597 50.6166 20.9815 50.538 20.901 50.457C20.6512 50.2057 20.4025 49.9533 20.1538 49.701C19.9847 49.5304 19.8155 49.36 19.6463 49.1896C19.2315 48.7716 18.8176 48.3528 18.4042 47.9334C18.1298 48.0651 17.9437 48.1818 17.7395 48.4086C17.6861 48.467 17.6328 48.5253 17.5778 48.5854C17.5203 48.649 17.4628 48.7127 17.4036 48.7782C16.8259 49.4056 16.2361 50.0199 15.6346 50.6243C15.4992 50.7605 15.3643 50.8973 15.2294 51.034C15.1465 51.1171 15.0635 51.2002 14.9781 51.2857C14.8668 51.3976 14.8668 51.3976 14.7533 51.5117C14.5695 51.6722 14.5695 51.6722 14.3778 51.6722C14.2563 51.5489 14.2563 51.5489 14.1086 51.3678C13.5908 50.7597 13.0192 50.2043 12.4544 49.6405C12.328 49.514 12.2017 49.3875 12.0753 49.2609C11.7341 48.9193 11.3926 48.5779 11.051 48.2367C10.6932 47.8791 10.3357 47.5213 9.9781 47.1636C9.37831 46.5636 8.77833 45.9639 8.17823 45.3642C7.48389 44.6704 6.7899 43.9763 6.09609 43.2819C5.50005 42.6854 4.90382 42.0892 4.30744 41.493C3.95136 41.1371 3.59533 40.7811 3.23948 40.4249C2.90551 40.0907 2.57131 39.7567 2.23693 39.4228C2.11403 39.3001 1.99121 39.1772 1.86847 39.0542C1.7015 38.887 1.53424 38.7201 1.36691 38.5532C1.31794 38.504 1.26897 38.4549 1.21852 38.4042C0.967569 38.1521 0.967568 38.1521 0.668945 37.9633C0.668945 37.6757 0.668945 37.6757 0.792246 37.5449C0.881899 37.4734 0.881899 37.4734 0.973362 37.4005C1.33717 37.0951 1.67906 36.7728 2.01514 36.4375C2.06858 36.3843 2.12202 36.331 2.17708 36.2762C2.35179 36.1017 2.52622 35.927 2.70065 35.7523C2.82715 35.6259 2.95367 35.4995 3.0802 35.3732C3.42185 35.032 3.7632 34.6905 4.10448 34.3489C4.46202 33.9911 4.8198 33.6336 5.17754 33.276C5.7775 32.6762 6.37726 32.0762 6.9769 31.4761C7.67072 30.7818 8.36488 30.0878 9.05922 29.394C9.65569 28.7979 10.252 28.2017 10.8481 27.6053C11.204 27.2492 11.56 26.8932 11.9162 26.5373C12.2505 26.2034 12.5845 25.8692 12.9183 25.5348C13.0411 25.4119 13.1639 25.2891 13.2869 25.1663C13.4541 24.9994 13.621 24.8321 13.7879 24.6648C13.8371 24.6158 13.8863 24.5668 13.9369 24.5164C14.189 24.2654 14.189 24.2654 14.3778 23.9668Z" fill="#1E2C39"/>
<path d="M54.9292 23.9668C55.0696 24.1091 55.0696 24.1091 55.232 24.305C55.5758 24.7091 55.9394 25.0852 56.3159 25.4587C56.3809 25.5236 56.446 25.5885 56.5129 25.6553C56.7178 25.8596 56.923 26.0636 57.1282 26.2676C57.2683 26.4073 57.4084 26.5469 57.5485 26.6866C57.8895 27.0265 58.2307 27.3661 58.5722 27.7056C58.9183 27.543 59.1422 27.3507 59.4132 27.0783C59.5437 26.9476 59.5437 26.9476 59.6769 26.8141C59.7443 26.7458 59.7443 26.7458 59.8131 26.6761C59.9486 26.5388 60.0849 26.4023 60.2213 26.2659C60.6397 25.8449 61.0455 25.4214 61.4257 24.9656C61.5878 24.7793 61.7675 24.6215 61.9574 24.4641C62.2236 24.2485 62.2236 24.2485 62.4068 23.9668C62.7976 24.1222 63.0594 24.4014 63.3495 24.6948C63.4051 24.7501 63.4606 24.8055 63.5178 24.8625C63.7039 25.0483 63.8892 25.2347 64.0746 25.4211C64.2078 25.5544 64.341 25.6876 64.4743 25.8207C64.8362 26.1826 65.1975 26.545 65.5586 26.9075C65.9361 27.2862 66.3142 27.6643 66.6921 28.0425C67.4079 28.7588 68.1231 29.4757 68.8382 30.1927C69.6523 31.0089 70.4669 31.8245 71.2815 32.6402C72.9574 34.3181 74.6326 35.9967 76.3074 37.6757C76.1485 38.1106 75.9274 38.3826 75.5996 38.7025C75.5485 38.7534 75.4974 38.8044 75.4448 38.8568C75.3366 38.9643 75.2282 39.0715 75.1194 39.1783C74.9552 39.3395 74.792 39.5017 74.629 39.6642C74.1394 40.1502 73.6462 40.6257 73.1218 41.0744C72.8266 41.3324 72.5512 41.6098 72.275 41.8878C72.2201 41.9424 72.1652 41.997 72.1086 42.0532C71.8342 42.3282 71.571 42.6074 71.3194 42.9034C70.8232 43.4769 70.2794 44.0056 69.7426 44.5406C69.5553 44.7274 69.3684 44.9148 69.1817 45.1022C68.6529 45.6312 68.1262 46.156 67.5559 46.6407C67.2618 46.8958 66.989 47.172 66.7148 47.4481C66.6599 47.5027 66.6049 47.5572 66.5483 47.6134C66.2716 47.8908 66.0058 48.1729 65.7513 48.4708C65.2885 49.0054 64.7884 49.5037 64.2894 50.0043C64.1194 50.1753 63.9505 50.3472 63.7815 50.5192C63.6726 50.6287 63.5636 50.7382 63.4546 50.8476C63.3797 50.9243 63.3797 50.9243 63.3032 51.0025C63.002 51.3019 62.8168 51.4124 62.4068 51.5763C61.2046 50.3742 60.0025 49.172 58.7639 47.9334C58.4284 48.1011 58.2769 48.2066 58.0262 48.4652C57.9583 48.5346 57.8905 48.604 57.8206 48.6755C57.7483 48.7503 57.676 48.8251 57.6015 48.9022C57.4473 49.0593 57.293 49.2164 57.1387 49.3735C56.8958 49.6217 56.6533 49.8703 56.4116 50.1196C56.1782 50.36 55.9433 50.5988 55.7081 50.8375C55.6358 50.9129 55.5635 50.9883 55.489 51.0659C55.3873 51.1687 55.3873 51.1687 55.2835 51.2735C55.2242 51.3344 55.1649 51.3953 55.1038 51.4581C54.9292 51.5763 54.9292 51.5763 54.7525 51.5593C54.4819 51.4561 54.3367 51.3082 54.1314 51.1039C54.0493 51.0229 53.9672 50.9418 53.8825 50.8583C53.7932 50.7687 53.7039 50.6792 53.6119 50.5869C53.5163 50.492 53.4207 50.3972 53.3251 50.3025C53.0655 50.0451 52.8069 49.7868 52.5486 49.5282C52.3329 49.3126 52.1169 49.0974 51.9009 48.8821C51.3915 48.3746 50.8829 47.8663 50.3748 47.3575C49.85 46.8321 49.3238 46.3081 48.7969 45.7848C48.345 45.3357 47.8939 44.8858 47.4436 44.4351C47.1745 44.1657 46.905 43.8968 46.6346 43.6287C46.3805 43.3768 46.1277 43.1238 45.8757 42.8698C45.7828 42.7766 45.6896 42.6839 45.5959 42.5916C45.4684 42.4658 45.3425 42.3385 45.2168 42.211C45.1103 42.1046 45.1103 42.1046 45.0016 41.9961C44.8633 41.798 44.8633 41.798 44.8817 41.5893C44.9713 41.387 45.0649 41.2835 45.2299 41.1366C45.3171 41.0573 45.3171 41.0573 45.4061 40.9764C45.4702 40.9193 45.5342 40.8622 45.6003 40.8033C46.3005 40.1645 46.9751 39.5039 47.6434 38.8321C47.6911 38.7842 47.7389 38.7362 47.7881 38.6868C48.0597 38.414 48.331 38.1409 48.6021 37.8674C48.9323 38.0095 49.1448 38.1956 49.3968 38.4502C49.4772 38.5309 49.5575 38.6115 49.6403 38.6946C49.7694 38.8257 49.7694 38.8257 49.9011 38.9594C49.9913 39.0502 50.0816 39.141 50.1719 39.2317C50.4096 39.4707 50.6467 39.7101 50.8837 39.9497C51.2617 40.3319 51.6404 40.7135 52.0195 41.0948C52.1509 41.2272 52.282 41.3599 52.4131 41.4927C52.7528 41.835 53.0891 42.173 53.461 42.4805C53.7629 42.7322 54.0097 43.0139 54.2643 43.3126C54.629 43.7271 55.0258 44.1111 55.4172 44.5002C55.5087 44.5915 55.6001 44.6828 55.6916 44.7742C55.9298 45.012 56.1683 45.2496 56.4069 45.4871C56.6513 45.7306 56.8954 45.9743 57.1396 46.2179C57.6168 46.6942 58.0944 47.1701 58.5722 47.6458C58.9007 47.5041 59.1138 47.3196 59.3657 47.0671C59.4469 46.9862 59.5281 46.9052 59.6117 46.8218C59.7 46.7329 59.7882 46.6439 59.8792 46.5523C59.9736 46.4578 60.0681 46.3633 60.1627 46.2689C60.419 46.0126 60.6747 45.7558 60.9303 45.4988C61.1976 45.2303 61.4655 44.9623 61.7333 44.6943C62.2402 44.1868 62.7467 43.6787 63.2529 43.1705C63.8294 42.592 64.4064 42.0139 64.9834 41.4359C66.1703 40.247 67.3565 39.0575 68.5422 37.8674C68.0761 37.3058 67.5739 36.7902 67.0569 36.2754C66.9661 36.1846 66.8754 36.0938 66.7847 36.0031C66.5401 35.7585 66.2952 35.5142 66.0503 35.2699C65.7938 35.014 65.5375 34.7577 65.2811 34.5015C64.7965 34.0172 64.3116 33.5331 63.8267 33.0491C63.2743 32.4977 62.7221 31.9461 62.1699 31.3944C61.0349 30.2604 59.8995 29.1267 58.7639 27.9932C58.4354 28.135 58.2222 28.3194 57.9704 28.5719C57.8892 28.6529 57.808 28.7338 57.7243 28.8172C57.5919 28.9506 57.5919 28.9506 57.4569 29.0867C57.3624 29.1812 57.2679 29.2757 57.1733 29.3701C56.917 29.6264 56.6613 29.8832 56.4057 30.1402C56.1384 30.4087 55.8705 30.6767 55.6027 30.9447C55.0958 31.4522 54.5894 31.9603 54.0831 32.4685C53.5066 33.047 52.9297 33.6251 52.3526 34.2031C51.1657 35.392 49.9795 36.5815 48.7938 37.7716C48.4969 37.6296 48.2939 37.4865 48.0618 37.2516C47.9953 37.1847 47.9288 37.1179 47.8602 37.049C47.7894 36.9769 47.7186 36.9048 47.6456 36.8305C47.5722 36.7565 47.4987 36.6826 47.423 36.6063C47.1884 36.3701 46.9545 36.1332 46.7207 35.8962C46.4861 35.6589 46.2514 35.4218 46.0163 35.185C45.8701 35.0376 45.7242 34.89 45.5785 34.742C45.5125 34.6755 45.4466 34.6089 45.3787 34.5404C45.3207 34.4815 45.2627 34.4227 45.2029 34.3621C45.059 34.2152 45.059 34.2152 44.8633 34.1286C44.9172 33.758 45.0796 33.5888 45.3406 33.3278C45.4227 33.245 45.5049 33.1622 45.5895 33.0769C45.6812 32.9859 45.7729 32.895 45.8646 32.804C45.9607 32.7077 46.0568 32.6113 46.1527 32.5148C46.4135 32.2531 46.6752 31.9924 46.9371 31.7318C47.2107 31.4592 47.4837 31.1859 47.7567 30.9127C48.2152 30.4541 48.6742 29.9961 49.1336 29.5385C49.6653 29.0088 50.1962 28.4783 50.7266 27.9473C51.2363 27.437 51.7466 26.9273 52.2571 26.4178C52.4747 26.2007 52.692 25.9834 52.9092 25.766C53.1648 25.5103 53.4208 25.2551 53.6771 25.0002C53.7714 24.9064 53.8654 24.8124 53.9593 24.7182C54.0871 24.5902 54.2154 24.4628 54.3439 24.3354C54.4157 24.2638 54.4875 24.1922 54.5615 24.1184C54.7375 23.9668 54.7375 23.9668 54.9292 23.9668Z" fill="#1E2C39"/>
<path d="M38.4398 0.00012207C38.811 0.17161 39.0633 0.409796 39.3446 0.701146C39.3891 0.74656 39.4337 0.791975 39.4796 0.838766C39.6126 0.974381 39.7452 1.11038 39.8778 1.24639C40.0375 1.40631 40.1972 1.56607 40.3572 1.72572C51.19 12.5586 51.19 12.5586 51.4478 12.8175C51.5777 12.9467 51.7095 13.0742 51.8454 13.1971C51.9929 13.3316 51.9929 13.3316 52.2446 13.6132C52.2282 13.9803 52.0184 14.1591 51.7645 14.4056C51.6856 14.483 51.6068 14.5605 51.5256 14.6404C51.4425 14.7206 51.3595 14.8008 51.2739 14.8834C50.7646 15.3795 50.2678 15.8749 49.8056 16.4155C49.5182 16.7416 49.1934 17.0288 48.8743 17.3235C48.6743 17.5206 48.6743 17.5206 48.7134 17.7261C48.8124 17.975 48.9395 18.1079 49.1299 18.2963C49.2364 18.4028 49.2364 18.4028 49.345 18.5114C49.4221 18.587 49.4992 18.6626 49.5787 18.7405C49.6966 18.8578 49.6966 18.8578 49.8168 18.9774C50.0682 19.2272 50.3205 19.4759 50.5729 19.7246C50.7434 19.8937 50.9139 20.0629 51.0842 20.2321C51.5022 20.6469 51.921 21.0609 52.3404 21.4742C51.8717 22.0391 51.3662 22.5573 50.8463 23.0751C50.7546 23.1668 50.6629 23.2585 50.5712 23.3502C50.3241 23.5974 50.0767 23.8443 49.8292 24.0911C49.5699 24.3497 49.3109 24.6087 49.0519 24.8676C48.5622 25.357 48.0722 25.8461 47.5822 26.3352C47.024 26.8924 46.466 27.4498 45.9081 28.0073C44.7611 29.1533 43.6138 30.2989 42.4662 31.4443C42.1643 31.3002 41.959 31.1523 41.7224 30.914C41.6188 30.8104 41.6188 30.8104 41.5131 30.7047C41.4396 30.6302 41.3661 30.5557 41.2904 30.4789C41.2143 30.4026 41.1382 30.3263 41.0599 30.2476C40.8172 30.0039 40.5752 29.7594 40.3332 29.515C40.1687 29.3496 40.0042 29.1842 39.8396 29.0188C39.4364 28.6135 39.0338 28.2077 38.6316 27.8014C38.2362 27.9828 37.9686 28.2498 37.668 28.5578C37.6127 28.6137 37.5574 28.6695 37.5004 28.727C37.3238 28.9053 37.1478 29.0843 36.9719 29.2634C36.7969 29.441 36.6218 29.6184 36.4464 29.7956C36.3375 29.9057 36.2289 30.016 36.1205 30.1266C35.8034 30.4477 35.4756 30.7423 35.1231 31.0245C34.9626 31.1623 34.9626 31.1623 34.8928 31.4443C34.4724 31.3962 34.2848 31.268 33.9876 30.9719C33.9053 30.8909 33.823 30.8098 33.7383 30.7263C33.6493 30.6367 33.5603 30.5471 33.4687 30.4548C33.3731 30.36 33.2775 30.2652 33.1818 30.1705C32.9225 29.9133 32.6644 29.6549 32.4065 29.3962C32.1913 29.1804 31.9754 28.9653 31.7595 28.7501C31.2506 28.2428 30.7426 27.7344 30.2352 27.2255C29.7113 26.6999 29.1858 26.1759 28.6595 25.6528C28.2079 25.2037 27.7573 24.7538 27.3074 24.303C27.0385 24.0337 26.7694 23.7648 26.4993 23.4967C26.2457 23.2448 25.9932 22.9918 25.7416 22.7378C25.6489 22.6446 25.5558 22.5519 25.4623 22.4596C25.335 22.3338 25.2093 22.2064 25.0838 22.079C24.9775 21.9726 24.9775 21.9726 24.869 21.8641C24.731 21.6659 24.731 21.6659 24.7479 21.4597C24.8497 21.231 24.9813 21.0901 25.1572 20.9118C25.227 20.8405 25.2968 20.7692 25.3687 20.6958C25.4445 20.6199 25.5204 20.5439 25.5986 20.4657C25.6763 20.3873 25.754 20.3089 25.834 20.2281C25.9985 20.0626 26.1633 19.8976 26.3285 19.7328C26.5817 19.4796 26.8329 19.2245 27.084 18.9691C27.2438 18.8088 27.4038 18.6486 27.5639 18.4885C27.6392 18.4116 27.7145 18.3347 27.7921 18.2555C27.8628 18.1857 27.9334 18.116 28.0063 18.0441C28.0681 17.982 28.13 17.9199 28.1937 17.856C28.3739 17.7354 28.3739 17.7354 28.5722 17.7496C28.8783 17.8846 29.0875 18.1287 29.3164 18.3657C29.3962 18.4464 29.3962 18.4464 29.4776 18.5288C29.6476 18.701 29.8167 18.8743 29.9856 19.0476C30.1537 19.219 30.322 19.3903 30.4906 19.5613C30.5952 19.6676 30.6996 19.7741 30.8036 19.8811C31.0531 20.1353 31.3062 20.3739 31.5808 20.6009C31.89 20.8613 32.1456 21.1489 32.4074 21.456C32.7665 21.8644 33.157 22.2425 33.5424 22.6257C33.6318 22.715 33.7212 22.8043 33.8134 22.8963C34.049 23.1316 34.285 23.3666 34.521 23.6016C34.7607 23.8403 35.0001 24.0792 35.2395 24.3182C35.6651 24.7428 36.0908 25.1672 36.5169 25.5913C36.6777 25.7518 36.8377 25.913 36.9975 26.0746C37.1911 26.2732 37.1911 26.2732 37.4213 26.4413C37.7699 26.7318 38.0522 27.0715 38.344 27.4179C38.7116 27.3638 38.8788 27.2062 39.1375 26.9466C39.2187 26.8658 39.2999 26.785 39.3835 26.7018C39.4718 26.6125 39.56 26.5232 39.651 26.4312C39.7454 26.3366 39.8399 26.2422 39.9345 26.1478C40.191 25.8913 40.4466 25.634 40.7021 25.3765C40.9693 25.1076 41.2372 24.8394 41.5051 24.5712C42.0122 24.0632 42.5186 23.5545 43.0248 23.0454C43.601 22.466 44.1781 21.8873 44.7552 21.3087C45.9424 20.1185 47.1286 18.9273 48.3141 17.7354C48.1729 17.4097 47.9909 17.1959 47.7415 16.9449C47.662 16.8644 47.5824 16.7838 47.5004 16.7009C47.413 16.6134 47.3255 16.5258 47.2354 16.4357C47.1425 16.342 47.0496 16.2483 46.9567 16.1545C46.7046 15.9004 46.4519 15.6468 46.199 15.3934C46.0412 15.2352 45.8834 15.0768 45.7257 14.9184C45.1756 14.3661 44.6251 13.8142 44.074 13.2629C43.5599 12.7484 43.0471 12.2327 42.5348 11.7164C42.0951 11.2734 41.6545 10.8313 41.2132 10.3899C40.9495 10.1261 40.6862 9.86203 40.4239 9.59697C40.1774 9.34797 39.9298 9.10013 39.6813 8.85315C39.5465 8.71866 39.413 8.58298 39.2794 8.44728C39.1993 8.36811 39.1192 8.28894 39.0367 8.20737C38.9673 8.13779 38.8979 8.06821 38.8264 7.99652C38.6449 7.84245 38.6449 7.84245 38.4404 7.86377C38.1899 7.98528 38.0311 8.13867 37.8344 8.33615C37.7524 8.41775 37.6704 8.49936 37.5859 8.58343C37.4958 8.67452 37.4058 8.76563 37.3157 8.85675C37.2204 8.95221 37.1249 9.04762 37.0294 9.14297C36.7703 9.40198 36.5121 9.66188 36.254 9.92194C35.9842 10.1936 35.7136 10.4644 35.443 10.7353C34.9308 11.2484 34.4193 11.7623 33.9081 12.2764C33.326 12.8616 32.7432 13.4461 32.1602 14.0305C30.9611 15.2326 29.763 16.4357 28.5656 17.6395C28.21 17.3386 27.857 17.0389 27.528 16.7086C27.4647 16.6453 27.4014 16.5821 27.3362 16.5168C27.2704 16.4506 27.2047 16.3844 27.137 16.3161C27.0331 16.212 27.0331 16.212 26.9271 16.1058C26.7081 15.8863 26.4894 15.6665 26.2708 15.4466C26.1215 15.2968 25.9721 15.147 25.8227 14.9972C25.4586 14.632 25.0947 14.2665 24.731 13.9008C24.8733 13.5698 25.0606 13.3561 25.3153 13.103C25.3962 13.022 25.4772 12.941 25.5606 12.8576C25.6483 12.771 25.736 12.6843 25.8263 12.595C25.9173 12.5043 26.0083 12.4135 26.0993 12.3228C26.3387 12.0841 26.5787 11.846 26.8188 11.608C27.0618 11.3669 27.3043 11.1253 27.5468 10.8838C27.9748 10.4576 28.4033 10.0319 28.8321 9.60659C29.0633 9.37678 29.2938 9.1463 29.5243 8.9157C29.6563 8.78366 29.7883 8.65162 29.9204 8.51959C29.9961 8.44391 30.0717 8.36824 30.1497 8.29027C32.9131 5.52689 35.6765 2.7635 38.4398 0.00012207Z" fill="#1E2C39"/>
<path d="M38.5337 48.1292C38.7853 48.2497 38.9433 48.4028 39.1405 48.6008C39.2225 48.6824 39.3045 48.764 39.3889 48.848C39.479 48.9391 39.5691 49.0302 39.6591 49.1213C39.7545 49.2168 39.85 49.3122 39.9455 49.4076C40.2046 49.6666 40.4628 49.9265 40.7208 50.1865C40.9907 50.4582 41.2613 50.729 41.5319 50.9999C42.0441 51.513 42.5556 52.0269 43.0668 52.541C43.6488 53.1262 44.2317 53.7107 44.8146 54.2951C46.0138 55.4972 47.2118 56.7003 48.4093 57.9042C48.2675 58.2327 48.083 58.4458 47.8305 58.6977C47.7496 58.7789 47.6687 58.8601 47.5853 58.9437C47.4963 59.032 47.4074 59.1202 47.3157 59.2112C47.2212 59.3056 47.1267 59.4001 47.0323 59.4947C46.776 59.751 46.5192 60.0067 46.2623 60.2623C45.9937 60.5296 45.7258 60.7975 45.4577 61.0653C44.9502 61.5722 44.4422 62.0787 43.934 62.585C43.3554 63.1614 42.7774 63.7384 42.1994 64.3154C41.0105 65.5023 39.8209 66.6885 38.6309 67.8743C38.3007 67.732 38.0868 67.5456 37.8337 67.2919C37.7517 67.2102 37.6697 67.1284 37.5853 67.0442C37.4952 66.9535 37.4051 66.8627 37.3151 66.7719C37.2197 66.6765 37.1242 66.5811 37.0287 66.4857C36.7698 66.2269 36.5116 65.9674 36.2534 65.7079C35.9834 65.4367 35.7128 65.166 35.4423 64.8953C34.9303 64.3827 34.4188 63.8696 33.9074 63.3563C33.3252 62.7719 32.7424 62.1881 32.1596 61.6043C30.9607 60.4035 29.7626 59.202 28.5649 58C29.0307 57.44 29.5305 56.9226 30.0442 56.4064C30.1343 56.3155 30.2245 56.2246 30.3146 56.1337C30.608 55.8377 30.902 55.5423 31.196 55.2469C31.2976 55.1448 31.3991 55.0427 31.5007 54.9407C31.9227 54.5166 32.3448 54.0926 32.7673 53.669C33.3719 53.0629 33.9756 52.456 34.5782 51.848C35.0028 51.4196 35.4284 50.9922 35.8547 50.5654C36.109 50.3107 36.363 50.0556 36.6159 49.7995C36.8974 49.5147 37.1806 49.2318 37.4641 48.9491C37.5478 48.8637 37.6316 48.7784 37.7179 48.6904C37.8336 48.5759 37.8336 48.5759 37.9517 48.4591C38.0184 48.392 38.0852 48.3249 38.154 48.2558C38.3433 48.1258 38.3433 48.1258 38.5337 48.1292Z" fill="#FEFEFD"/>
<path d="M18.3562 27.9959C18.6446 28.1079 18.7989 28.2435 19.0181 28.4619C19.0996 28.5421 19.1811 28.6224 19.265 28.705C19.3531 28.7937 19.4411 28.8824 19.5319 28.9738C19.6265 29.0677 19.7211 29.1616 19.8159 29.2553C20.0727 29.51 20.3282 29.7658 20.5835 30.0219C20.7966 30.2355 21.0103 30.4485 21.224 30.6615C21.7279 31.1638 22.2309 31.6671 22.7332 32.171C23.2519 32.6913 23.7721 33.2101 24.2932 33.728C24.7403 34.1726 25.1865 34.6181 25.6319 35.0643C25.8981 35.3309 26.1645 35.5972 26.4319 35.8626C26.6831 36.112 26.933 36.3625 27.1821 36.614C27.3177 36.7503 27.4546 36.8855 27.5914 37.0206C27.6712 37.1017 27.7511 37.1827 27.8333 37.2662C27.9035 37.3364 27.9737 37.4067 28.0459 37.479C28.1825 37.6756 28.1825 37.6756 28.1801 37.8671C28.0584 38.1173 27.9049 38.2762 27.7075 38.4728C27.6259 38.5548 27.5443 38.6368 27.4603 38.7213C27.3692 38.8114 27.2781 38.9014 27.187 38.9915C27.0915 39.0868 26.9961 39.1823 26.9007 39.2778C26.6417 39.5369 26.3818 39.7951 26.1218 40.0532C25.8501 40.323 25.5793 40.5936 25.3084 40.8642C24.7953 41.3764 24.2815 41.8879 23.7673 42.3991C23.1821 42.9812 22.5976 43.5641 22.0133 44.147C20.8111 45.3461 19.608 46.5442 18.4042 47.7416C17.8465 47.2787 17.3347 46.7805 16.8239 46.2666C16.6879 46.1304 16.5519 45.9942 16.4159 45.8579C16.271 45.7127 16.1262 45.5673 15.9814 45.4219C15.6791 45.1183 15.3765 44.8151 15.0738 44.512C14.4321 43.8692 13.7908 43.226 13.1495 42.5828C12.4554 41.8866 11.7613 41.1905 11.0667 40.4949C10.7657 40.1934 10.4649 39.8916 10.1642 39.5897C10.0226 39.4475 9.88078 39.3054 9.73895 39.1633C9.56584 38.9899 9.39291 38.8164 9.22018 38.6426C9.14425 38.5667 9.06833 38.4907 8.9901 38.4125C8.89094 38.313 8.89094 38.313 8.78976 38.2115C8.63302 38.0515 8.63302 38.0515 8.43408 37.9632C8.48849 37.597 8.6447 37.4283 8.9022 37.1691C8.9823 37.0877 9.0624 37.0064 9.14493 36.9226C9.23348 36.8342 9.32202 36.7458 9.41325 36.6547C9.50699 36.5601 9.60067 36.4654 9.6943 36.3707C9.94873 36.1137 10.2041 35.8577 10.4597 35.6019C10.6729 35.3884 10.8857 35.1745 11.0986 34.9607C11.6006 34.4563 12.1034 33.9528 12.6067 33.4497C13.1263 32.9303 13.6442 32.4093 14.1614 31.8876C14.6054 31.4399 15.0504 30.9933 15.4963 30.5476C15.7627 30.2813 16.0286 30.0145 16.2934 29.7467C16.5424 29.4949 16.7927 29.2446 17.0441 28.9953C17.1802 28.8596 17.3149 28.7225 17.4496 28.5853C17.5714 28.4653 17.5714 28.4653 17.6956 28.343C17.7658 28.2727 17.8359 28.2024 17.9081 28.13C18.1166 27.9931 18.1166 27.9931 18.3562 27.9959Z" fill="#FEFEFE"/>
<path d="M22.3342 23.9668C22.4673 24.1018 22.4673 24.1018 22.6241 24.292C23.0347 24.7744 23.4776 25.2188 23.9262 25.6656C24.017 25.7564 24.1078 25.8472 24.1985 25.938C24.4427 26.1822 24.6871 26.426 24.9317 26.6699C25.188 26.9256 25.444 27.1816 25.7001 27.4375C26.184 27.9212 26.6682 28.4046 27.1525 28.8879C27.7042 29.4386 28.2557 29.9895 28.8071 30.5405C29.9406 31.6729 31.0744 32.805 32.2084 33.9369C32.1166 34.0445 32.0248 34.152 31.9329 34.2595C31.8562 34.3494 31.8562 34.3494 31.778 34.441C31.6145 34.6295 31.4446 34.8089 31.2684 34.9854C31.2046 35.0495 31.1407 35.1135 31.0748 35.1794C31.01 35.2439 30.9451 35.3084 30.8782 35.3749C30.8141 35.4394 30.75 35.5039 30.6839 35.5704C30.304 35.9495 29.9145 36.31 29.5044 36.6562C29.2685 36.8712 29.0718 37.1104 28.8748 37.3608C28.836 37.4014 28.7972 37.4421 28.7572 37.484C28.6939 37.484 28.6307 37.484 28.5655 37.484C28.5385 37.7693 28.5314 37.9156 28.7008 38.153C28.7641 38.2138 28.8274 38.2746 28.8926 38.3372C28.9639 38.407 29.0352 38.4767 29.1087 38.5486C29.1866 38.6225 29.2645 38.6964 29.3448 38.7725C29.4237 38.8497 29.5027 38.9268 29.584 39.0063C29.8366 39.253 30.0906 39.4981 30.345 39.7428C30.68 40.0651 31.0134 40.389 31.346 40.7138C31.424 40.7879 31.5021 40.8621 31.5826 40.9384C31.6536 41.0078 31.7246 41.0773 31.7978 41.1488C31.861 41.2095 31.9242 41.2703 31.9894 41.3328C32.1125 41.5104 32.1125 41.5104 32.0958 41.6873C31.9922 41.9575 31.8443 42.103 31.6401 42.3082C31.5591 42.3903 31.478 42.4724 31.3945 42.5571C31.3049 42.6464 31.2153 42.7357 31.123 42.8277C31.0282 42.9233 30.9334 43.0189 30.8387 43.1145C30.5813 43.3741 30.3229 43.6327 30.0644 43.891C29.8488 44.1067 29.6335 44.3227 29.4183 44.5387C28.9108 45.0481 28.4025 45.5567 27.8937 46.0648C27.3683 46.5896 26.8443 47.1158 26.321 47.6427C25.8719 48.0947 25.422 48.5457 24.9713 48.996C24.7019 49.2652 24.433 49.5346 24.1649 49.805C23.913 50.0591 23.66 50.312 23.406 50.564C23.3128 50.6568 23.2201 50.7501 23.1278 50.8437C23.002 50.9712 22.8747 51.0971 22.7472 51.2229C22.6763 51.2939 22.6054 51.3648 22.5323 51.438C22.3342 51.5763 22.3342 51.5763 22.1281 51.5599C21.8943 51.4552 21.753 51.3173 21.5728 51.1352C21.4999 51.0623 21.4269 50.9893 21.3518 50.9142C21.2741 50.835 21.1964 50.7558 21.1164 50.6742C20.9959 50.5531 20.9959 50.5531 20.873 50.4296C20.6164 50.1714 20.3608 49.9122 20.1053 49.653C19.9316 49.4779 19.7578 49.3028 19.584 49.1278C19.1578 48.6985 18.7325 48.2683 18.3078 47.8375C18.7731 47.276 19.2758 46.7636 19.7946 46.2516C19.8856 46.1614 19.9765 46.0713 20.0674 45.9811C20.2618 45.7882 20.4564 45.5955 20.6511 45.4029C20.9588 45.0983 21.2659 44.7931 21.5729 44.4879C21.6783 44.3831 21.7836 44.2784 21.889 44.1736C21.9681 44.095 21.9681 44.095 22.0487 44.0148C22.7627 43.3049 23.4772 42.5955 24.193 41.8874C24.6771 41.4085 25.1603 40.9288 25.6426 40.448C25.8976 40.194 26.153 39.9403 26.4095 39.6877C26.6947 39.4068 26.9781 39.124 27.2613 38.841C27.3468 38.7574 27.4323 38.6738 27.5204 38.5876C27.5969 38.5106 27.6734 38.4336 27.7521 38.3543C27.8194 38.2876 27.8866 38.221 27.9558 38.1523C28.105 37.9754 28.105 37.9754 28.0822 37.7725C27.9638 37.5244 27.8152 37.3691 27.6204 37.1747C27.5408 37.0946 27.4612 37.0145 27.3792 36.932C27.2913 36.8449 27.2033 36.7578 27.1127 36.6681C27.0196 36.5749 26.9266 36.4817 26.8336 36.3884C26.5809 36.1352 26.3273 35.8829 26.0736 35.6308C25.8082 35.3669 25.5437 35.1023 25.279 34.8377C24.8345 34.3935 24.3894 33.9498 23.9439 33.5065C23.3721 32.9375 22.8012 32.3675 22.2305 31.7973C21.74 31.3071 21.2491 30.8174 20.7581 30.3278C20.6002 30.1703 20.4424 30.0128 20.2846 29.8553C20.0367 29.6078 19.7885 29.3606 19.5401 29.1136C19.4054 28.9795 19.271 28.8452 19.1365 28.7109C19.0564 28.6314 18.9763 28.5518 18.8938 28.4698C18.8242 28.4005 18.7546 28.3312 18.6829 28.2598C18.4921 28.073 18.4921 28.073 18.2119 27.8973C18.2119 27.834 18.2119 27.7708 18.2119 27.7056C18.2746 27.6703 18.3373 27.6351 18.4019 27.5987C18.8224 27.336 19.1407 26.9881 19.4863 26.635C19.5617 26.5588 19.6372 26.4826 19.715 26.4041C19.9554 26.1613 20.1952 25.9179 20.4348 25.6744C20.7512 25.3529 21.0682 25.0321 21.3856 24.7116C21.4586 24.637 21.5316 24.5625 21.6068 24.4856C21.6743 24.4174 21.7419 24.3493 21.8115 24.279C21.8709 24.2186 21.9303 24.1582 21.9916 24.0959C22.1424 23.9668 22.1424 23.9668 22.3342 23.9668Z" fill="#A6A6A8"/>
<path d="M34.7146 44.2123C34.9465 44.3139 35.084 44.447 35.2621 44.6269C35.3331 44.6979 35.4041 44.769 35.4772 44.8421C35.5528 44.9192 35.6284 44.9963 35.7063 45.0757C35.8236 45.1936 35.8236 45.1936 35.9432 45.3139C36.193 45.5653 36.4417 45.8176 36.6904 46.07C36.8595 46.2405 37.0286 46.4109 37.1979 46.5813C37.6127 46.9993 38.0266 47.4181 38.44 47.8375C38.8205 47.6633 39.0262 47.441 39.3028 47.1245C39.7514 46.6208 40.2243 46.1688 40.7266 45.718C41.2631 45.2317 41.7665 44.7101 42.2746 44.1946C42.6049 44.3368 42.8187 44.5233 43.0718 44.777C43.1538 44.8587 43.2358 44.9404 43.3203 45.0246C43.4104 45.1154 43.5004 45.2061 43.5905 45.2969C43.6859 45.3924 43.7813 45.4878 43.8768 45.5832C44.1357 45.842 44.394 46.1014 44.6522 46.3609C44.9222 46.6321 45.1927 46.9028 45.4632 47.1735C45.9752 47.6861 46.4868 48.1993 46.9981 48.7125C47.5804 49.2969 48.1632 49.8808 48.746 50.4646C49.9448 51.6654 51.1429 52.8669 52.3406 54.0688C51.7441 54.7736 51.7441 54.7736 51.42 55.0946C51.359 55.1554 51.2979 55.2161 51.235 55.2787C51.1392 55.3733 51.1392 55.3733 51.0415 55.4698C50.9745 55.5364 50.9074 55.6031 50.8384 55.6718C50.6263 55.8827 50.414 56.0932 50.2016 56.3037C49.9201 56.5827 49.6389 56.862 49.3579 57.1414C49.2931 57.2054 49.2283 57.2694 49.1615 57.3354C49.102 57.3946 49.0424 57.4539 48.981 57.5149C48.9285 57.5669 48.8759 57.619 48.8218 57.6726C48.6872 57.8066 48.6872 57.8066 48.6018 57.9994C48.2731 57.8577 48.0617 57.6736 47.8109 57.42C47.7302 57.3389 47.6496 57.2578 47.5665 57.1743C47.4789 57.0852 47.3912 56.9961 47.3009 56.9043C47.207 56.8096 47.1132 56.715 47.0192 56.6204C46.8173 56.4169 46.6156 56.213 46.4141 56.009C46.0957 55.6866 45.7764 55.3651 45.4569 55.0438C44.5486 54.13 43.6413 53.2152 42.7354 52.2991C42.235 51.7929 41.7336 51.2876 41.2313 50.7833C40.9133 50.4638 40.5964 50.1434 40.2802 49.8221C40.0836 49.6229 39.886 49.4246 39.6881 49.2267C39.5524 49.0903 39.418 48.9528 39.2836 48.8153C39.2029 48.735 39.1223 48.6548 39.0392 48.5721C38.9694 48.5016 38.8995 48.431 38.8276 48.3584C38.6455 48.2021 38.6455 48.2021 38.4402 48.2236C38.1918 48.3443 38.0337 48.4955 37.8382 48.691C37.757 48.7715 37.6758 48.8521 37.5922 48.935C37.5039 49.024 37.4156 49.113 37.3247 49.2047C37.2303 49.2989 37.1358 49.3931 37.0412 49.4872C36.7846 49.7428 36.529 49.9993 36.2736 50.2561C36.0064 50.5244 35.7384 50.7919 35.4706 51.0596C35.021 51.509 34.5721 51.959 34.1235 52.4094C33.6043 52.9307 33.0842 53.4511 32.5636 53.971C32.0634 54.4707 31.5637 54.9709 31.0643 55.4714C30.8515 55.6847 30.6385 55.8978 30.4253 56.1107C30.1747 56.3612 29.9245 56.6122 29.6747 56.8635C29.5387 57.0001 29.4022 57.1362 29.2658 57.2723C29.1856 57.3531 29.1055 57.4339 29.023 57.5171C28.9528 57.5875 28.8826 57.6579 28.8103 57.7304C28.6408 57.8897 28.6408 57.8897 28.6616 58.0952C28.3565 57.9935 28.3064 57.9451 28.1152 57.7052C27.7827 57.3032 27.4207 56.938 27.0506 56.5707C26.9812 56.5014 26.9118 56.4322 26.8403 56.3608C26.6208 56.1418 26.401 55.9232 26.1811 55.7045C26.0313 55.5552 25.8815 55.4059 25.7317 55.2565C25.3665 54.8923 25.001 54.5284 24.6353 54.1647C25.1036 53.6014 25.6067 53.0814 26.1233 52.5623C26.2144 52.4704 26.3055 52.3786 26.3965 52.2867C26.6931 51.9876 26.9902 51.6891 27.2873 51.3906C27.3899 51.2874 27.4925 51.1843 27.5951 51.0812C28.0216 50.6526 28.4482 50.2242 28.8752 49.7962C29.4861 49.1837 30.0962 48.5704 30.7051 47.956C31.1343 47.5232 31.5643 47.0913 31.995 46.66C32.2521 46.4026 32.5087 46.1448 32.7644 45.8861C33.0043 45.6433 33.2453 45.4017 33.4872 45.1609C33.6183 45.0298 33.7482 44.8976 33.878 44.7653C33.956 44.6882 34.0339 44.611 34.1142 44.5316C34.1817 44.4638 34.2492 44.396 34.3187 44.3261C34.5095 44.1946 34.5095 44.1946 34.7146 44.2123Z" fill="#A6A6A8"/>
<path d="M48.6012 17.6389C48.7408 17.7805 48.7408 17.7805 48.9026 17.9758C49.2533 18.3878 49.6249 18.7709 50.0088 19.1518C50.076 19.2188 50.1431 19.2858 50.2123 19.3549C50.424 19.566 50.636 19.7768 50.848 19.9876C50.9928 20.1319 51.1375 20.2762 51.2822 20.4205C51.6345 20.7718 51.9872 21.1228 52.3399 21.4736C51.8712 22.0385 51.3657 22.5566 50.8458 23.0744C50.7541 23.1661 50.6624 23.2579 50.5707 23.3496C50.3236 23.5968 50.0762 23.8436 49.8287 24.0904C49.5694 24.3491 49.3104 24.608 49.0514 24.8669C48.5617 25.3563 48.0717 25.8455 47.5817 26.3346C47.0235 26.8918 46.4655 27.4492 45.9076 28.0067C44.7606 29.1526 43.6133 30.2983 42.4657 31.4437C42.1638 31.2996 41.9585 31.1516 41.7219 30.9134C41.6183 30.8098 41.6183 30.8098 41.5126 30.704C41.4391 30.6295 41.3656 30.555 41.2899 30.4783C41.2138 30.402 41.1377 30.3256 41.0594 30.247C40.8167 30.0032 40.5747 29.7588 40.3327 29.5144C40.1682 29.3489 40.0037 29.1835 39.8391 29.0182C39.4359 28.6129 39.0333 28.207 38.6311 27.8008C38.2357 27.9822 37.9681 28.2492 37.6675 28.5572C37.6122 28.613 37.5569 28.6688 37.4999 28.7263C37.3233 28.9047 37.1473 29.0837 36.9714 29.2627C36.7964 29.4403 36.6213 29.6178 36.4459 29.795C36.337 29.9051 36.2284 30.0154 36.1201 30.126C35.8029 30.4471 35.4751 30.7417 35.1226 31.0238C34.9621 31.1617 34.9621 31.1617 34.8923 31.4437C34.4719 31.3955 34.2843 31.2674 33.9871 30.9713C33.9048 30.8902 33.8226 30.8092 33.7378 30.7257C33.6488 30.6361 33.5599 30.5465 33.4682 30.4542C33.3727 30.3593 33.277 30.2646 33.1813 30.1698C32.922 29.9126 32.6639 29.6542 32.406 29.3955C32.1908 29.1798 31.9749 28.9646 31.7591 28.7495C31.2501 28.2421 30.7421 27.7338 30.2347 27.2248C29.7108 26.6993 29.1853 26.1753 28.659 25.6521C28.2074 25.2031 27.7568 24.7531 27.3069 24.3024C27.038 24.0331 26.7689 23.7642 26.4988 23.4961C26.2452 23.2442 25.9927 22.9911 25.7411 22.7372C25.6484 22.644 25.5553 22.5512 25.4618 22.4589C25.3345 22.3332 25.2089 22.2058 25.0833 22.0784C25.0124 22.0074 24.9416 21.9365 24.8685 21.8634C24.7305 21.6653 24.7305 21.6653 24.7474 21.4591C24.8493 21.2304 24.9808 21.0894 25.1567 20.9112C25.2614 20.8042 25.2614 20.8042 25.3682 20.6951C25.4441 20.6192 25.5199 20.5433 25.5981 20.4651C25.6758 20.3867 25.7535 20.3083 25.8335 20.2275C25.998 20.062 26.1628 19.8969 26.328 19.7322C26.5812 19.479 26.8324 19.2238 27.0835 18.9685C27.2433 18.8082 27.4033 18.6479 27.5634 18.4879C27.6387 18.411 27.714 18.3341 27.7916 18.2549C27.8976 18.1502 27.8976 18.1502 28.0058 18.0434C28.0676 17.9814 28.1295 17.9193 28.1933 17.8553C28.3734 17.7348 28.3734 17.7348 28.5717 17.749C28.8778 17.884 29.087 18.128 29.3159 18.365C29.3691 18.4189 29.4223 18.4727 29.4771 18.5281C29.6472 18.7004 29.8162 18.8736 29.9851 19.047C30.1532 19.2184 30.3215 19.3897 30.4901 19.5606C30.5947 19.6669 30.6991 19.7735 30.8032 19.8804C31.0526 20.1347 31.3057 20.3733 31.5803 20.6002C31.8895 20.8607 32.1451 21.1482 32.4069 21.4554C32.766 21.8637 33.1565 22.2419 33.5419 22.6251C33.676 22.759 33.676 22.759 33.8129 22.8956C34.0486 23.131 34.2845 23.366 34.5206 23.601C34.7602 23.8396 34.9996 24.0786 35.2391 24.3176C35.6646 24.7422 36.0903 25.1666 36.5164 25.5906C36.6772 25.7511 36.8373 25.9124 36.997 26.074C37.1907 26.2726 37.1907 26.2726 37.4208 26.4407C37.7694 26.7312 38.0517 27.0709 38.3435 27.4173C38.7128 27.3634 38.8801 27.2034 39.1393 26.9423C39.2211 26.8607 39.3028 26.7791 39.387 26.695C39.4768 26.6039 39.5665 26.5128 39.6563 26.4217C39.7513 26.3263 39.8465 26.2308 39.9417 26.1355C40.1465 25.9301 40.3508 25.7243 40.5548 25.5181C40.8771 25.1924 41.2004 24.8677 41.5239 24.5432C42.1518 23.913 42.7786 23.2817 43.4052 22.6504C44.2035 21.8463 45.0024 21.0427 45.8021 20.2399C46.1238 19.9169 46.4451 19.5934 46.7659 19.2694C46.9651 19.0685 47.1648 18.8679 47.3645 18.6674C47.4574 18.574 47.55 18.4805 47.6425 18.3868C47.7684 18.2594 47.8949 18.1326 48.0214 18.0059C48.1275 17.8989 48.1275 17.8989 48.2357 17.7899C48.4094 17.6389 48.4094 17.6389 48.6012 17.6389Z" fill="#A6A6A8"/>
<path d="M48.601 37.8667C48.9312 38.0088 49.1437 38.1949 49.3957 38.4495C49.476 38.5301 49.5564 38.6108 49.6392 38.6939C49.7252 38.7813 49.8113 38.8687 49.9 38.9587C49.9902 39.0495 50.0805 39.1403 50.1708 39.231C50.4085 39.4699 50.6456 39.7094 50.8826 39.949C51.2606 40.3312 51.6393 40.7128 52.0184 41.094C52.1498 41.2264 52.2809 41.3592 52.412 41.4919C52.7517 41.8343 53.088 42.1723 53.4599 42.4798C53.7614 42.7311 54.0077 43.0123 54.2619 43.3106C54.6337 43.7328 55.0383 44.1239 55.437 44.5204C55.5307 44.6139 55.6243 44.7074 55.7179 44.8009C55.9618 45.0444 56.206 45.2877 56.4502 45.5308C56.7004 45.78 56.9503 46.0295 57.2003 46.279C57.6889 46.7666 58.1778 47.2539 58.6669 47.7409C58.0542 48.471 57.3886 49.1433 56.7178 49.8195C56.5704 49.9685 56.4235 50.1181 56.2771 50.2681C56.065 50.4854 55.8514 50.7011 55.6374 50.9165C55.572 50.9841 55.5066 51.0517 55.4392 51.1213C55.3777 51.1825 55.3163 51.2437 55.2529 51.3067C55.1993 51.3611 55.1457 51.4155 55.0905 51.4715C54.9281 51.5756 54.9281 51.5756 54.7521 51.5577C54.4804 51.4556 54.3361 51.308 54.1303 51.1032C54.0482 51.0222 53.966 50.9411 53.8814 50.8576C53.7921 50.768 53.7028 50.6784 53.6108 50.5861C53.5152 50.4913 53.4196 50.3965 53.324 50.3018C53.0644 50.0444 52.8058 49.786 52.5474 49.5275C52.3318 49.3118 52.1158 49.0966 51.8998 48.8814C51.3904 48.3739 50.8818 47.8655 50.3737 47.3568C49.8489 46.8313 49.3227 46.3074 48.7958 45.784C48.3439 45.335 47.8928 44.885 47.4425 44.4343C47.1733 44.165 46.9039 43.8961 46.6335 43.628C46.3794 43.3761 46.1265 43.123 45.8745 42.8691C45.7817 42.7759 45.6885 42.6832 45.5948 42.5908C45.4673 42.4651 45.3414 42.3377 45.2156 42.2103C45.1447 42.1394 45.0737 42.0684 45.0005 41.9954C44.8622 41.7972 44.8622 41.7972 44.8806 41.5886C44.9702 41.3863 45.0638 41.2828 45.2288 41.1359C45.2869 41.083 45.3451 41.0301 45.405 40.9756C45.4691 40.9185 45.5331 40.8614 45.5991 40.8026C46.2993 40.1638 46.974 39.5032 47.6423 38.8314C47.69 38.7834 47.7378 38.7355 47.7869 38.6861C48.0586 38.4133 48.3299 38.1402 48.601 37.8667Z" fill="#A6A6A8"/>
<path d="M54.9292 23.9668C55.0689 24.1083 55.0689 24.1083 55.2307 24.3036C55.5813 24.7157 55.953 25.0988 56.3369 25.4797C56.404 25.5467 56.4712 25.6137 56.5404 25.6827C56.752 25.8939 56.9641 26.1047 57.1761 26.3155C57.3209 26.4598 57.4656 26.6041 57.6103 26.7484C57.9626 27.0997 58.3152 27.4507 58.668 27.8015C58.1993 28.3664 57.6938 28.8845 57.1739 29.4023C57.0822 29.494 56.9905 29.5857 56.8988 29.6775C56.6517 29.9246 56.4042 30.1715 56.1568 30.4183C55.8975 30.677 55.6385 30.9359 55.3795 31.1948C54.8898 31.6842 54.3998 32.1734 53.9098 32.6625C53.3515 33.2196 52.7936 33.7771 52.2356 34.3345C51.0887 35.4805 49.9413 36.6262 48.7938 37.7716C48.4969 37.6296 48.2939 37.4865 48.0618 37.2516C47.9953 37.1847 47.9288 37.1179 47.8602 37.049C47.7894 36.9769 47.7186 36.9048 47.6456 36.8305C47.5722 36.7565 47.4987 36.6826 47.423 36.6063C47.1884 36.3701 46.9545 36.1332 46.7207 35.8962C46.4861 35.6589 46.2514 35.4218 46.0163 35.185C45.8701 35.0376 45.7242 34.89 45.5785 34.742C45.5125 34.6755 45.4466 34.6089 45.3787 34.5404C45.3207 34.4815 45.2627 34.4227 45.2029 34.3621C45.059 34.2152 45.059 34.2152 44.8633 34.1286C44.9172 33.758 45.0796 33.5888 45.3406 33.3278C45.4227 33.245 45.5049 33.1622 45.5895 33.0769C45.6812 32.9859 45.7729 32.895 45.8646 32.804C45.9607 32.7077 46.0568 32.6113 46.1527 32.5148C46.4135 32.2531 46.6752 31.9924 46.9371 31.7318C47.2107 31.4592 47.4837 31.1859 47.7567 30.9127C48.2152 30.4541 48.6742 29.9961 49.1336 29.5385C49.6653 29.0088 50.1962 28.4783 50.7266 27.9473C51.2363 27.437 51.7466 26.9273 52.2571 26.4178C52.4747 26.2007 52.692 25.9834 52.9093 25.766C53.1648 25.5103 53.4208 25.2551 53.6771 25.0002C53.7714 24.9064 53.8654 24.8124 53.9593 24.7182C54.0871 24.5902 54.2155 24.4628 54.3439 24.3354C54.4157 24.2638 54.4875 24.1922 54.5615 24.1184C54.7375 23.9668 54.7375 23.9668 54.9292 23.9668Z" fill="#A6A6A8"/>
<path d="M38.5543 7.77963C38.7276 7.86042 38.7276 7.86042 38.8234 8.05215C38.7177 8.06444 38.7177 8.06444 38.6099 8.07697C38.2881 8.163 38.1611 8.28323 37.9268 8.51792C37.8464 8.59749 37.7661 8.67707 37.6832 8.75905C37.5964 8.847 37.5095 8.93495 37.42 9.02556C37.3267 9.1187 37.2332 9.21175 37.1397 9.30472C36.8863 9.55718 36.6342 9.81083 36.3822 10.0647C36.1184 10.3302 35.8536 10.5947 35.589 10.8593C35.1448 11.3036 34.7013 11.7488 34.2583 12.1944C33.7459 12.7098 33.2325 13.2242 32.7186 13.738C32.2243 14.2321 31.7306 14.7268 31.2372 15.2218C31.0271 15.4326 30.8169 15.6432 30.6065 15.8537C30.359 16.1014 30.1119 16.3496 29.8653 16.5982C29.7312 16.733 29.5968 16.8674 29.4623 17.0018C29.3433 17.122 29.3433 17.122 29.222 17.2446C29.1527 17.3142 29.0834 17.3838 29.012 17.4555C28.8331 17.6387 28.8331 17.6387 28.7575 17.9264C28.6309 17.8631 28.5044 17.7999 28.374 17.7347C28.5054 17.472 28.7173 17.3315 28.9386 17.1451C29.3301 16.8019 29.6904 16.4264 30.0559 16.0561C30.146 15.9652 30.2361 15.8742 30.3263 15.7834C30.5192 15.5889 30.7119 15.3943 30.9046 15.1996C31.2091 14.8919 31.5143 14.5848 31.8196 14.2778C31.9243 14.1724 32.0291 14.0671 32.1338 13.9617C32.1862 13.909 32.2387 13.8563 32.2927 13.802C33.0025 13.088 33.712 12.3735 34.42 11.6577C34.8989 11.1736 35.3787 10.6904 35.8594 10.2081C36.1135 9.95311 36.3671 9.69769 36.6197 9.44123C36.9007 9.15598 37.1834 8.87261 37.4664 8.58937C37.55 8.50387 37.6337 8.41837 37.7198 8.33028C37.7968 8.25381 37.8738 8.17734 37.9531 8.09854C38.0198 8.03134 38.0864 7.96413 38.1551 7.89488C38.3441 7.76455 38.3441 7.76455 38.5543 7.77963Z" fill="#D2D4D6"/>
<path d="M18.3339 28.0201C18.3887 28.0432 18.4435 28.0662 18.5 28.0899C18.4553 28.1279 18.4105 28.1659 18.3644 28.2051C17.8262 28.6681 17.3216 29.1589 16.8203 29.6614C16.7325 29.7491 16.6446 29.8367 16.5541 29.9271C16.3155 30.1653 16.0771 30.4038 15.8388 30.6424C15.5888 30.8927 15.3385 31.1428 15.0882 31.3929C14.6688 31.8122 14.2495 32.2316 13.8304 32.6512C13.3457 33.1364 12.8607 33.6213 12.3754 34.106C11.9581 34.523 11.5409 34.9401 11.1239 35.3573C10.8751 35.6063 10.6263 35.8551 10.3773 36.1038C10.1004 36.3803 9.824 36.6572 9.54761 36.9341C9.4649 37.0166 9.38219 37.0992 9.29697 37.1842C9.1847 37.2969 9.1847 37.2969 9.07016 37.4118C9.00479 37.4772 8.93942 37.5426 8.87207 37.61C8.71391 37.7657 8.71391 37.7657 8.62581 37.9642C8.56254 37.9642 8.49927 37.9642 8.43408 37.9642C8.48844 37.5976 8.64496 37.4292 8.90284 37.17C8.98308 37.0887 9.06332 37.0074 9.146 36.9236C9.23469 36.8352 9.32339 36.7467 9.41477 36.6556C9.50867 36.561 9.60251 36.4664 9.69629 36.3717C9.95112 36.1147 10.2069 35.8587 10.4629 35.6029C10.6763 35.3894 10.8894 35.1755 11.1025 34.9616C11.605 34.4573 12.1082 33.9538 12.612 33.4507C13.1322 32.9311 13.6509 32.4102 14.169 31.8885C14.6136 31.441 15.059 30.9944 15.5053 30.5486C15.7719 30.2821 16.0382 30.0153 16.3036 29.7476C16.553 29.4961 16.8035 29.2457 17.0549 28.9963C17.1913 28.8604 17.3264 28.7233 17.4615 28.5863C17.5426 28.5063 17.6237 28.4263 17.7072 28.3439C17.8125 28.2385 17.8125 28.2385 17.9199 28.1309C18.1166 27.9941 18.1166 27.9941 18.3339 28.0201Z" fill="#D1D4D7"/>
<path d="M61.5443 24.8304C61.6076 24.8304 61.6708 24.8304 61.736 24.8304C61.578 25.2389 61.272 25.5104 60.9661 25.8108C60.9094 25.8673 60.8526 25.9237 60.7942 25.9819C60.6133 26.1618 60.4317 26.3409 60.2501 26.5201C60.1278 26.6414 60.0056 26.7627 59.8835 26.8841C59.66 27.106 59.4363 27.3277 59.2122 27.549C59.0625 27.697 58.913 27.8452 58.7642 27.994C58.7642 27.7064 58.7642 27.7064 58.9574 27.482C59.0462 27.3954 59.1349 27.3088 59.2263 27.2196C59.2738 27.1727 59.3214 27.1257 59.3704 27.0774C59.5232 26.9269 59.6769 26.7774 59.8307 26.6279C60.031 26.4321 60.2309 26.2358 60.4306 26.0393C60.4785 25.9923 60.5264 25.9454 60.5758 25.897C60.8363 25.6399 61.0824 25.3774 61.3158 25.0956C61.3912 25.0081 61.4666 24.9206 61.5443 24.8304Z" fill="#283342"/>
<path d="M61.7367 24.8304C61.5846 25.2046 61.3404 25.4378 61.0536 25.7172C60.9664 25.8027 60.8791 25.8882 60.7892 25.9763C60.7223 26.0411 60.6553 26.1059 60.5863 26.1726C60.523 26.1409 60.4597 26.1093 60.3945 26.0767C60.5142 25.9408 60.6341 25.805 60.754 25.6693C60.8208 25.5936 60.8875 25.518 60.9562 25.4401C61.5094 24.8304 61.5094 24.8304 61.7367 24.8304Z" fill="#3A4552"/>
</svg>
