<svg width="58" height="76" viewBox="0 0 58 76" fill="none" xmlns="http://www.w3.org/2000/svg">
<path d="M12.8423 19.8597C16.9759 19.8525 21.1095 19.8465 25.2431 19.8431C25.7317 19.8427 26.2203 19.8423 26.7088 19.8418C26.8061 19.8417 26.9034 19.8417 27.0036 19.8416C28.5762 19.8402 30.1487 19.8376 31.7213 19.8346C33.3363 19.8315 34.9512 19.8297 36.5661 19.8291C37.5617 19.8286 38.5574 19.8272 39.553 19.8246C40.2367 19.8229 40.9205 19.8223 41.6042 19.8228C41.998 19.823 42.3919 19.8227 42.7857 19.8209C45.7836 19.8082 45.7836 19.8082 47.135 20.1853C47.3047 20.2267 47.4744 20.2679 47.6442 20.309C47.7845 20.3481 47.9245 20.3882 48.0643 20.4294C48.14 20.4516 48.2157 20.4737 48.2937 20.4965C48.9653 20.7035 49.5719 20.9968 50.1893 21.3298C50.4452 21.46 50.6533 21.5445 50.9333 21.596C50.9333 21.6676 50.9333 21.7393 50.9333 21.8131C51.0119 21.8417 51.0905 21.8704 51.1715 21.9C52.8878 22.6338 54.3186 24.3853 55.2741 25.9368C55.3258 26.016 55.3774 26.0951 55.4306 26.1767C55.8806 26.9131 56.1249 27.7456 56.3983 28.5592C56.4548 28.7209 56.5188 28.88 56.5849 29.038C56.7128 29.3741 56.7832 29.7082 56.8545 30.0605C56.895 30.2552 56.895 30.2552 56.9363 30.4539C57.1474 31.675 57.1345 32.9178 57.1321 34.1529C57.1321 34.3327 57.1322 34.5125 57.1323 34.6923C57.1326 35.1828 57.1321 35.6733 57.1316 36.1638C57.1311 36.6941 57.1313 37.2244 57.1314 37.7547C57.1314 38.6722 57.1311 39.5898 57.1305 40.5074C57.1296 41.834 57.1293 43.1606 57.1292 44.4873C57.1289 46.6399 57.1282 48.7926 57.1272 50.9452C57.1262 53.0357 57.1254 55.1261 57.125 57.2166C57.1249 57.4101 57.1249 57.4101 57.1249 57.6074C57.1247 58.2544 57.1246 58.9014 57.1245 59.5484C57.1233 64.9118 57.1214 70.2751 57.119 75.6385C56.7357 75.5687 56.4773 75.4947 56.158 75.2688C56.0441 75.1888 56.0441 75.1888 55.9278 75.1071C55.8487 75.0497 55.7695 74.9923 55.6879 74.9331C55.6057 74.8743 55.5235 74.8154 55.4388 74.7547C54.8018 74.2924 54.2169 73.7931 53.6463 73.2511C53.459 73.0834 53.2714 72.9161 53.0834 72.7492C52.2838 72.027 51.5939 71.2822 50.9333 70.4296C50.88 70.3644 50.8267 70.2992 50.7718 70.232C48.9666 67.9642 47.8491 65.1187 47.1622 62.3313C47.1298 62.2015 47.1298 62.2015 47.0968 62.069C46.7167 60.4439 46.6699 58.8373 46.675 57.1778C46.6748 56.9526 46.6746 56.7274 46.6743 56.5023C46.6738 56.0208 46.6739 55.5394 46.6745 55.0579C46.6753 54.2951 46.6742 53.5323 46.6726 52.7696C46.6685 50.6016 46.6666 48.4337 46.6678 46.2658C46.6685 45.0658 46.6672 43.8659 46.6639 42.6659C46.6618 41.9091 46.6622 41.1524 46.6643 40.3956C46.6651 39.9233 46.6635 39.451 46.6614 38.9787C46.6608 38.7613 46.6612 38.544 46.6626 38.3267C46.6758 36.1038 46.19 34.1242 44.6187 32.4615C43.1486 31.0827 41.4311 30.3706 39.4289 30.3694C39.3329 30.3689 39.2368 30.3684 39.1379 30.3679C38.8174 30.3665 38.4969 30.3658 38.1763 30.3651C37.946 30.3643 37.7156 30.3634 37.4852 30.3624C36.7296 30.3596 35.974 30.3579 35.2185 30.3564C34.9577 30.3558 34.697 30.3552 34.4362 30.3546C33.351 30.3523 32.2658 30.3503 31.1806 30.349C29.6288 30.3473 28.077 30.3437 26.5252 30.3375C25.4322 30.3333 24.3392 30.3312 23.2462 30.3306C22.5944 30.3302 21.9426 30.3289 21.2907 30.3254C20.6767 30.3221 20.0628 30.3214 19.4488 30.3227C19.2246 30.3227 19.0005 30.3218 18.7763 30.3199C16.5672 30.3021 14.7655 30.7492 13.0593 32.2309C12.9877 32.2309 12.9161 32.2309 12.8423 32.2309C12.8423 28.1484 12.8423 24.0659 12.8423 19.8597Z" fill="#A6A6A8"/>
<path d="M0.363168 0.000244141C2.91607 0.989482 5.51304 3.62452 6.98297 5.86027C7.04284 5.95022 7.10272 6.04017 7.16441 6.13284C8.45891 8.11908 9.48921 10.1939 10.1301 12.4799C10.161 12.5822 10.1919 12.6844 10.2238 12.7898C10.7566 14.6832 10.8297 16.6787 10.823 18.6327C10.8234 18.8555 10.824 19.0783 10.8247 19.3011C10.826 19.7749 10.8263 20.2488 10.8258 20.7226C10.825 21.4731 10.8268 22.2235 10.8289 22.9739C10.8333 24.7003 10.8346 26.4267 10.8358 28.1531C10.8369 29.7404 10.8387 31.3278 10.8432 32.9151C10.8451 33.6601 10.8456 34.4051 10.8448 35.1501C10.8446 35.6136 10.8458 36.0771 10.8473 36.5407C10.8478 36.7545 10.8476 36.9683 10.8469 37.1821C10.8435 38.2891 10.8606 39.3067 11.2153 40.3693C11.2536 40.4889 11.292 40.6085 11.3315 40.7318C12.174 42.8069 13.6404 44.1525 15.6782 45.0289C16.917 45.4169 18.3654 45.2695 19.6501 45.2702C19.8759 45.2707 20.1017 45.2712 20.3275 45.2718C20.9376 45.2732 21.5477 45.2739 22.1578 45.2744C22.5395 45.2747 22.9213 45.2752 23.3031 45.2757C24.4994 45.2771 25.6957 45.2782 26.892 45.2786C28.2697 45.2791 29.6474 45.281 31.0251 45.2841C32.0927 45.2865 33.1602 45.2876 34.2278 45.2877C34.8643 45.2878 35.5008 45.2885 36.1374 45.2904C36.736 45.2922 37.3345 45.2924 37.9331 45.2915C38.152 45.2914 38.3709 45.2919 38.5898 45.2929C40.657 45.3025 42.2809 44.9921 43.9548 43.6978C44.2058 43.5164 44.2058 43.5164 44.5314 43.4079C44.5314 47.4903 44.5314 51.5728 44.5314 55.779C40.4392 55.7838 36.3471 55.7878 32.255 55.7901C31.7713 55.7904 31.2876 55.7907 30.8039 55.7909C30.6595 55.791 30.6595 55.791 30.5121 55.7911C28.9553 55.7921 27.3985 55.7938 25.8417 55.7958C24.243 55.7978 22.6443 55.799 21.0455 55.7994C20.0599 55.7997 19.0743 55.8007 18.0886 55.8024C17.4117 55.8036 16.7349 55.8039 16.058 55.8037C15.6681 55.8035 15.2782 55.8037 14.8883 55.8049C11.88 55.8135 11.88 55.8135 10.5642 55.562C10.4832 55.5468 10.4023 55.5317 10.3189 55.5161C7.41399 54.9102 4.73541 53.1498 2.96768 50.7871C2.89578 50.6989 2.82387 50.6106 2.74979 50.5197C2.03797 49.6139 1.58394 48.58 1.12282 47.5316C1.0716 47.4196 1.02038 47.3076 0.967616 47.1922C0.383387 45.8218 0.299631 44.3507 0.310967 42.8822C0.310778 42.6957 0.310396 42.5091 0.309844 42.3226C0.308883 41.816 0.310595 41.3094 0.312786 40.8028C0.314675 40.2542 0.314025 39.7057 0.313696 39.1571C0.31347 38.2087 0.314822 37.2603 0.317272 36.3119C0.320813 34.9407 0.321932 33.5695 0.322476 32.1983C0.323424 29.9731 0.326308 27.7479 0.330421 25.5228C0.334411 23.3623 0.337481 21.2019 0.339323 19.0414C0.339437 18.9081 0.339551 18.7747 0.339669 18.6373C0.340235 17.9682 0.340784 17.2991 0.341323 16.6301C0.345817 11.0868 0.353457 5.54351 0.363168 0.000244141Z" fill="#1E2C39"/>
<path d="M57.1187 0.000244141C57.1187 7.91454 57.1187 15.8288 57.1187 23.983C56.7768 23.641 56.5208 23.3822 56.2505 23.0063C54.0596 20.1563 50.5555 18.0458 46.9991 17.5057C46.8514 17.4889 46.8514 17.4889 46.7007 17.4718C46.5452 14.6916 47.3587 11.7467 48.5417 9.25149C48.6758 8.95996 48.7797 8.66369 48.8711 8.35621C48.9427 8.35621 49.0143 8.35621 49.0881 8.35621C49.0972 8.28235 49.1063 8.20849 49.1157 8.13239C49.218 7.72943 49.4086 7.40487 49.624 7.05398C49.6674 6.98267 49.7109 6.91135 49.7556 6.83787C50.4815 5.66886 51.3497 4.62657 52.299 3.63341C52.4007 3.52693 52.5017 3.4199 52.6021 3.3123C55.6981 0.000244141 55.6981 0.000244141 57.1187 0.000244141Z" fill="#1F2D3A"/>
<path d="M0.361816 51.7615C0.969109 52.3688 0.969109 52.3688 1.22787 52.6788C2.84452 54.5946 4.68692 56.0548 6.98162 57.0789C7.04784 57.1094 7.11406 57.1398 7.18229 57.1712C8.31377 57.687 9.45416 57.9414 10.6713 58.1641C10.8993 63.2361 8.63601 67.9867 5.3538 71.729C5.26735 71.8289 5.18089 71.9287 5.09182 72.0316C3.98659 73.2888 2.66559 74.3075 1.2639 75.2151C1.19876 75.2575 1.13363 75.2999 1.06652 75.3435C0.606358 75.6357 0.606358 75.6357 0.361816 75.6357C0.361816 67.7572 0.361816 59.8787 0.361816 51.7615Z" fill="#A6A6A8"/>
</svg>
