<svg width="76" height="76" viewBox="0 0 76 76" fill="none" xmlns="http://www.w3.org/2000/svg">
<path d="M47.4647 0.0718498C44.1152 3.42841 40.7649 6.78415 37.4134 10.1388C37.0174 10.5352 36.6214 10.9316 36.2254 11.328C36.1465 11.407 36.0677 11.4859 35.9865 11.5672C34.7114 12.8436 33.4369 14.1205 32.1626 15.3976C30.8542 16.7089 29.5452 18.0196 28.2357 19.3297C27.4282 20.1376 26.6212 20.9459 25.8148 21.7549C25.2611 22.3102 24.7068 22.865 24.1521 23.4193C23.8325 23.7387 23.5131 24.0583 23.1945 24.3786C22.9019 24.6727 22.6086 24.9661 22.3147 25.2589C22.2093 25.3641 22.1042 25.4696 21.9994 25.5754C21.0631 26.5201 20.0501 27.4008 18.8793 28.0439C18.8182 28.0775 18.7572 28.1111 18.6943 28.1457C18.5198 28.241 18.3445 28.3347 18.169 28.4283C18.0396 28.5003 18.0396 28.5003 17.9076 28.5737C16.0616 29.5592 14.1312 29.9139 12.0571 29.9204C11.9217 29.921 11.7864 29.9216 11.6469 29.9222C8.3017 29.8972 5.16592 28.654 2.74702 26.3364C2.54643 26.1303 2.54643 26.1303 2.32227 26.0305C2.32227 25.7178 2.32226 25.7178 2.47426 25.5577C2.57865 25.4731 2.57865 25.4731 2.68515 25.3869C3.15642 24.9916 3.58932 24.5683 4.02252 24.132C4.14577 24.0086 4.14577 24.0086 4.2715 23.8826C4.44853 23.7052 4.62543 23.5276 4.80222 23.35C5.08255 23.0683 5.3632 22.787 5.64395 22.5058C6.23985 21.9087 6.83534 21.3112 7.43077 20.7137C8.12114 20.0209 8.81169 19.3282 9.50269 18.636C9.77824 18.3598 10.0535 18.0833 10.3287 17.8067C10.4988 17.6363 10.6689 17.4658 10.839 17.2954C10.9146 17.2192 10.9903 17.1431 11.0682 17.0646C12.3595 15.7732 12.3595 15.7732 12.9563 15.5011C12.9563 15.4323 12.9563 15.3635 12.9563 15.2926C13.1156 15.1471 13.2822 15.0095 13.4515 14.8756C13.557 14.7913 13.6625 14.7071 13.7712 14.6203C13.8264 14.5763 13.8817 14.5323 13.9386 14.487C14.1951 14.2802 14.445 14.0658 14.696 13.8526C17.4753 11.5339 20.6226 9.63183 23.7944 7.90321C24.0007 7.7901 24.2059 7.67517 24.4109 7.55965C24.5327 7.49189 24.6544 7.42415 24.7762 7.35644C24.8802 7.29812 24.9842 7.2398 25.0914 7.1797C25.3626 7.05672 25.3626 7.05672 25.7797 7.05672C25.7797 6.98791 25.7797 6.91911 25.7797 6.84822C25.9269 6.77775 26.0747 6.70848 26.2227 6.63971C26.305 6.60101 26.3872 6.56231 26.472 6.52243C26.718 6.43121 26.718 6.43121 27.135 6.43121C27.135 6.3624 27.135 6.2936 27.135 6.22271C27.8126 5.90995 27.8126 5.90995 28.2818 5.90995C28.2818 5.84114 28.2818 5.77234 28.2818 5.70145C28.3557 5.67591 28.4296 5.65038 28.5058 5.62407C29.1102 5.41188 29.7108 5.19391 30.3062 4.95743C33.7697 3.58577 37.3291 2.56614 40.9333 1.6372C41.6583 1.44933 42.3728 1.23897 43.086 1.01012C43.5199 0.875452 43.9419 0.778425 44.3892 0.703876C44.7857 0.635201 45.1095 0.537835 45.4745 0.363836C46.0638 0.138039 46.856 -0.131045 47.4647 0.0718498Z" fill="#0E0E0E"/>
<path d="M49.7572 2.25964C50.0909 2.40684 50.3146 2.5825 50.5717 2.83985C50.6493 2.917 50.7269 2.99416 50.8068 3.07364C50.8909 3.15834 50.9751 3.24304 51.0617 3.33031C51.1958 3.46409 51.1958 3.46409 51.3326 3.60058C51.5775 3.84514 51.8219 4.09016 52.0661 4.3354C52.3224 4.59262 52.5793 4.84929 52.8361 5.10602C53.2677 5.53774 53.6989 5.96985 54.1299 6.40223C54.6265 6.90047 55.1237 7.39818 55.6212 7.89557C56.1523 8.42666 56.6831 8.95816 57.2138 9.48976C57.3658 9.64204 57.518 9.79424 57.6701 9.94643C57.9554 10.2318 58.2402 10.5176 58.5249 10.8035C58.6084 10.8869 58.6919 10.9703 58.7779 11.0563C59.2118 11.4926 59.6295 11.937 60.0304 12.4038C60.2398 12.6469 60.4591 12.8803 60.6779 13.1149C61.2806 13.7773 61.8292 14.4751 62.3721 15.1869C62.4336 15.2672 62.4951 15.3476 62.5585 15.4304C63.4061 16.5401 64.2256 17.6595 64.9784 18.8357C65.0519 18.9499 65.0519 18.9499 65.1269 19.0664C66.0787 20.5481 66.9783 22.0559 67.8389 23.5922C67.9036 23.707 67.9036 23.707 67.9695 23.8241C68.2185 24.2723 68.4301 24.7219 68.6274 25.195C68.7126 25.3696 68.7993 25.5435 68.888 25.7163C69.0659 26.0629 69.2251 26.4136 69.3778 26.772C69.5043 27.0675 69.6343 27.3613 69.7636 27.6555C70.7092 29.8235 71.5254 32.0225 72.2763 34.2649C72.3295 34.4233 72.3295 34.4233 72.3837 34.5849C73.006 36.4559 73.5284 38.3651 73.9863 40.2824C74.0852 40.6914 74.2037 41.0676 74.3614 41.4583C74.4263 41.7122 74.4868 41.9651 74.5438 42.2207C74.7195 42.9847 74.9023 43.7468 75.0912 44.5077C75.1311 44.6685 75.1311 44.6685 75.1717 44.8327C75.3431 45.5147 75.533 46.1837 75.7619 46.8489C75.821 47.0879 75.821 47.0879 75.7167 47.4007C72.3884 44.0796 69.0609 40.7577 65.7345 37.4347C65.3413 37.042 64.9481 36.6492 64.555 36.2565C64.4767 36.1783 64.3984 36.1001 64.3178 36.0195C63.0522 34.7554 61.7861 33.4918 60.5198 32.2284C59.2195 30.931 57.9197 29.633 56.6204 28.3344C55.8194 27.5339 55.0179 26.7338 54.2159 25.9343C53.6651 25.3852 53.1149 24.8355 52.5652 24.2854C52.2485 23.9685 51.9316 23.6519 51.614 23.336C49.5937 21.326 47.894 19.3882 46.7338 16.7506C46.6511 16.5674 46.6511 16.5674 46.5668 16.3805C46.4289 16.0404 46.3361 15.7207 46.2581 15.3628C46.2343 15.2557 46.2106 15.1486 46.186 15.0382C46.1475 14.8538 46.1475 14.8538 46.1083 14.6656C46.0902 14.5933 46.0722 14.521 46.0537 14.4466C45.8655 13.6382 45.8628 12.8325 45.8672 12.0072C45.8674 11.9333 45.8676 11.8594 45.8678 11.7833C45.883 8.26322 47.1445 4.92851 49.6277 2.38466C49.6704 2.34341 49.7132 2.30215 49.7572 2.25964Z" fill="#A6A6A8"/>
<path d="M0.132812 28.2192C0.765198 28.7431 1.34487 29.3118 1.92491 29.8924C2.03142 29.9986 2.13796 30.1048 2.24451 30.211C2.53588 30.5016 2.82692 30.7924 3.1179 31.0833C3.43234 31.3975 3.74707 31.7115 4.06177 32.0255C4.7492 32.7114 5.43624 33.3978 6.12319 34.0843C6.55256 34.5134 6.98201 34.9424 7.41147 35.3713C8.60178 36.5603 9.79199 37.7494 10.9818 38.9389C11.0579 39.015 11.134 39.091 11.2124 39.1694C11.3267 39.2837 11.3268 39.2837 11.4434 39.4004C11.5979 39.5548 11.7524 39.7093 11.9069 39.8637C11.9836 39.9403 12.0602 40.0169 12.1392 40.0959C13.3803 41.3366 14.6222 42.5766 15.8644 43.8163C17.1414 45.0908 18.4177 46.3658 19.6935 47.6414C20.4092 48.357 21.1251 49.0722 21.8416 49.7869C22.4519 50.3955 23.0616 51.0047 23.6707 51.6146C23.981 51.9253 24.2916 52.2358 24.6028 52.5456C24.8886 52.83 25.1736 53.1151 25.4581 53.4009C25.6082 53.5513 25.7591 53.7009 25.91 53.8505C26.8427 54.7902 27.6844 55.813 28.3077 56.9862C28.3508 57.066 28.3938 57.1458 28.4381 57.228C30.2059 60.5513 30.5319 64.2243 29.49 67.8439C28.8266 69.982 27.6199 71.6665 26.1966 73.3603C25.9042 73.2273 25.6945 73.0913 25.4717 72.8606C25.4156 72.8034 25.3596 72.7462 25.3019 72.6873C25.2445 72.6277 25.1871 72.5681 25.128 72.5067C24.7783 72.1456 24.4276 71.7947 24.0451 71.4683C23.4882 70.9875 22.9727 70.4648 22.4538 69.944C22.2808 69.7704 22.1073 69.5975 21.9337 69.4246C21.4146 68.9058 20.9061 68.3834 20.4291 67.8252C20.0782 67.4268 19.6985 67.056 19.3223 66.6816C19.243 66.602 19.1638 66.5224 19.0822 66.4403C18.6452 66.0041 18.2003 65.5854 17.7283 65.1871C17.4599 64.9447 17.2319 64.6727 16.9985 64.3971C16.8111 64.1832 16.6139 63.9864 16.4096 63.7886C15.9631 63.3473 15.5744 62.8688 15.1822 62.3792C15.0274 62.1882 14.8701 61.9996 14.7122 61.8111C12.4145 59.064 10.4311 56.158 8.73518 53.0079C8.54264 52.6545 8.33968 52.3088 8.13439 51.9626C5.7117 47.74 4.05531 43.0089 2.73267 38.3382C2.70401 38.2372 2.67536 38.1361 2.64583 38.0321C2.51787 37.5671 2.40865 37.1066 2.32787 36.6311C2.20688 35.9314 2.01354 35.2547 1.82044 34.5721C1.78275 34.4374 1.7451 34.3027 1.70751 34.168C1.63352 33.9031 1.55923 33.6384 1.48477 33.3737C1.35658 32.9177 1.23005 32.4613 1.10369 32.0049C0.977888 31.551 0.85115 31.0974 0.722505 30.6443C0.494972 29.8398 0.279051 29.0435 0.132812 28.2192Z" fill="#A6A6A8"/>
<path d="M72.5523 48.6862C72.7872 48.8865 73.0122 49.0953 73.2344 49.3095C73.4136 49.4955 73.4136 49.4955 73.6327 49.5926C73.4873 49.9204 73.3174 50.1423 73.0643 50.3952C72.9525 50.5076 72.9525 50.5076 72.8385 50.6223C72.7567 50.7035 72.675 50.7847 72.5907 50.8683C72.5046 50.9547 72.4184 51.041 72.3297 51.13C72.0442 51.4158 71.758 51.7008 71.4718 51.9859C71.273 52.1844 71.0744 52.3832 70.8757 52.5819C70.4587 52.9988 70.0413 53.4152 69.6236 53.8315C69.1424 54.311 68.6617 54.7911 68.1814 55.2715C67.6684 55.7846 67.155 56.2972 66.6415 56.8098C66.4944 56.9566 66.3475 57.1035 66.2005 57.2504C65.9248 57.5258 65.6488 57.801 65.3727 58.076C65.2921 58.1565 65.2116 58.2371 65.1287 58.3201C64.6435 58.8024 64.1429 59.2591 63.6242 59.705C63.4566 59.8566 63.2893 60.0086 63.1225 60.1611C62.5752 60.6542 62.0099 61.1212 61.4348 61.5815C61.3811 61.6247 61.3274 61.668 61.2721 61.7125C57.0463 65.1089 52.2033 68.0449 47.1519 70.0259C46.9301 70.1165 46.7085 70.2076 46.4873 70.2996C46.357 70.3532 46.357 70.3532 46.2242 70.4079C46.0365 70.4887 45.8498 70.5718 45.6657 70.6605C44.8493 71.0491 44.0077 71.3212 43.1446 71.5832C43.0067 71.6257 42.8689 71.6682 42.731 71.7108C42.3695 71.8224 42.0075 71.9324 41.6454 72.0419C41.4179 72.1109 41.1905 72.1807 40.9632 72.2505C39.384 72.7327 37.7919 73.1685 36.2001 73.6068C35.6121 73.7687 35.0242 73.9311 34.4363 74.0934C34.221 74.1529 34.0057 74.2123 33.7904 74.2717C32.794 74.5467 31.7983 74.8241 30.8032 75.1039C30.613 75.1573 30.4228 75.2105 30.2324 75.2633C30.0326 75.3195 29.8331 75.3772 29.634 75.4361C29.5315 75.4657 29.429 75.4954 29.3234 75.526C29.2311 75.5533 29.1387 75.5806 29.0436 75.6087C28.803 75.6555 28.803 75.6555 28.4902 75.5512C31.8775 72.1545 35.2659 68.7589 38.6557 65.3648C39.0563 64.9637 39.4569 64.5626 39.8575 64.1614C39.9771 64.0417 39.9771 64.0417 40.0992 63.9195C41.3888 62.6281 42.6777 61.3359 43.9663 60.0435C45.2894 58.7165 46.6134 57.3903 47.9381 56.0647C48.7549 55.2474 49.571 54.4295 50.3864 53.6108C50.9463 53.0487 51.5069 52.4874 52.0682 51.9267C52.3916 51.6036 52.7146 51.2802 53.0366 50.9559C53.3324 50.6581 53.6291 50.3613 53.9266 50.0653C54.0332 49.9588 54.1395 49.8521 54.2453 49.7449C55.017 48.9641 55.838 48.3291 56.7434 47.716C56.8298 47.6566 56.9162 47.5972 57.0053 47.536C57.3713 47.2938 57.5448 47.1948 57.9944 47.1948C57.9944 47.126 57.9944 47.0571 57.9944 46.9863C62.8986 45.053 68.3113 45.3031 72.5523 48.6862Z" fill="#0E0E0E"/>
<path d="M50.2795 7.995C50.6967 8.16254 50.9769 8.4552 51.2873 8.76899C51.3452 8.82666 51.4031 8.88433 51.4627 8.94374C51.6537 9.1344 51.844 9.3258 52.0343 9.51723C52.1675 9.65054 52.3007 9.78381 52.434 9.91705C52.7134 10.1966 52.9925 10.4766 53.2713 10.7568C53.6269 11.1142 53.9832 11.4708 54.3397 11.8273C54.6152 12.1027 54.8903 12.3784 55.1654 12.6542C55.2965 12.7857 55.4278 12.9171 55.559 13.0485C56.219 13.7092 56.8717 14.3687 57.4731 15.0841C57.5781 15.2056 57.6833 15.327 57.7887 15.4482C58.3932 16.1495 58.9919 16.8533 59.5582 17.5862C59.6117 17.6551 59.6653 17.7241 59.7205 17.7951C61.2817 19.8132 62.6494 21.9273 63.8751 24.1644C64.0416 24.4675 64.2102 24.7694 64.3792 25.0711C65.9445 27.8876 67.1963 30.8256 68.283 33.856C68.3212 33.962 68.3212 33.962 68.3602 34.0702C68.4612 34.3599 68.5241 34.5824 68.5241 34.892C68.4553 34.892 68.3865 34.892 68.3156 34.892C68.1881 34.7623 68.1881 34.7623 68.0311 34.5687C67.4262 33.8586 66.753 33.2142 66.0919 32.5572C65.9402 32.4061 65.7886 32.2549 65.637 32.1038C65.3116 31.7795 64.9861 31.4553 64.6605 31.1313C64.1448 30.618 63.6296 30.1042 63.1145 29.5903C61.6501 28.1294 60.1853 26.669 58.7194 25.2096C57.9088 24.4027 57.0989 23.5953 56.2896 22.7872C55.7786 22.2771 55.2669 21.7677 54.7547 21.2587C54.4351 20.9408 54.1162 20.6222 53.7974 20.3035C53.6505 20.1568 53.5033 20.0104 53.3558 19.8642C51.1419 17.6703 51.1419 17.6703 51.0093 16.8564C50.9405 16.8564 50.8716 16.8564 50.8008 16.8564C50.4736 16.2426 50.2417 15.6396 50.0449 14.9733C50.0169 14.8838 49.989 14.7942 49.9602 14.7019C49.8053 14.1848 49.726 13.7471 49.7582 13.2076C49.6894 13.2076 49.6206 13.2076 49.5497 13.2076C49.4448 9.55674 49.4448 9.55674 50.2795 7.995Z" fill="#FCFCFC"/>
<path d="M34.9525 7.37053C32.8334 9.50177 30.7128 11.6315 28.5904 13.7595C28.3938 13.9566 28.1972 14.1537 28.0007 14.3508C27.9518 14.3998 27.903 14.4487 27.8526 14.4992C27.1131 15.2409 26.3743 15.9833 25.6359 16.7262C24.7779 17.5893 23.919 18.4516 23.0589 19.3128C22.604 19.7684 22.1495 20.2244 21.6961 20.6816C21.2685 21.1128 20.8396 21.5427 20.4098 21.9718C20.2531 22.1286 20.0969 22.2858 19.9412 22.4435C19.0106 23.3855 18.076 24.2315 16.9164 24.8848C16.8476 24.8848 16.7788 24.8848 16.7079 24.8848C16.7079 24.9536 16.7079 25.0224 16.7079 25.0933C16.4041 25.2093 16.1 25.3242 15.7956 25.4387C15.7116 25.4709 15.6276 25.503 15.5411 25.5362C14.3505 25.9815 13.2646 26.1918 11.9903 26.1815C11.7914 26.1806 11.7914 26.1806 11.5885 26.1798C10.2993 26.1589 9.23274 25.9265 8.05469 25.4061C8.65216 24.676 9.3222 24.0192 9.98911 23.3536C10.1171 23.2255 10.2451 23.0974 10.3731 22.9693C10.6406 22.7017 10.9082 22.4343 11.176 22.1671C11.5173 21.8264 11.8581 21.4852 12.1988 21.1439C12.4628 20.8795 12.7271 20.6154 12.9914 20.3513C13.1171 20.2257 13.2427 20.1 13.3682 19.9743C14.0113 19.3303 14.6558 18.6951 15.3525 18.1085C15.4591 18.0158 15.5655 17.9231 15.6718 17.8303C16.4725 17.1436 17.3 16.5033 18.1494 15.8781C18.3837 15.705 18.6165 15.53 18.8492 15.3547C19.9409 14.5361 21.0589 13.7705 22.2124 13.0412C22.3628 12.9459 22.5128 12.8497 22.6621 12.7526C22.732 12.7075 22.8019 12.6625 22.874 12.6161C22.9342 12.5769 22.9943 12.5378 23.0563 12.4974C23.2759 12.3746 23.2759 12.3746 23.6271 12.2272C23.988 12.0696 24.2968 11.8899 24.6268 11.6762C25.3884 11.1953 26.1846 10.8015 26.9965 10.4134C27.1085 10.3595 27.1085 10.3595 27.2227 10.3046C33.993 7.05072 33.993 7.05072 34.9525 7.37053Z" fill="#FEFDFB"/>
<path d="M7.53516 40.9376C7.97614 41.1095 8.27163 41.4366 8.59832 41.7658C8.69504 41.862 8.69504 41.862 8.79371 41.9602C9.00996 42.1756 9.22546 42.3917 9.44097 42.6079C9.59576 42.7624 9.75059 42.9168 9.90546 43.0713C10.3264 43.4913 10.7467 43.9119 11.1669 44.3328C11.607 44.7734 12.0476 45.2135 12.4881 45.6537C13.2286 46.3937 13.9686 47.1341 14.7083 47.8748C15.5621 48.7298 16.4166 49.5839 17.2716 50.4377C18.0061 51.1713 18.7403 51.9053 19.4741 52.6396C19.9121 53.0779 20.3503 53.5161 20.7888 53.9539C21.2017 54.3662 21.6141 54.779 22.0261 55.1922C22.1769 55.3433 22.3278 55.4941 22.479 55.6448C25.0217 58.1804 26.3228 60.4523 26.335 64.0793C26.3268 65.0586 26.2177 65.8739 25.884 66.7921C25.8113 67.0345 25.7434 67.2779 25.6755 67.5218C25.3628 67.5218 25.3628 67.5218 25.1491 67.342C25.0687 67.2593 24.9883 67.1766 24.9054 67.0914C24.8161 67.0006 24.7268 66.9098 24.6348 66.8163C24.5418 66.7201 24.4487 66.624 24.3528 66.5249C23.7935 65.9516 23.2367 65.3875 22.6278 64.8666C21.9533 64.2821 21.3408 63.6229 20.7625 62.9445C20.5166 62.67 20.2559 62.4116 19.9936 62.1529C19.6052 61.7691 19.2327 61.378 18.8782 60.9625C18.6515 60.7005 18.4169 60.4465 18.1822 60.1916C17.1298 59.0371 16.1689 57.8044 15.2761 56.5233C15.2129 56.4326 15.1497 56.342 15.0845 56.2486C12.7103 52.8268 10.4224 49.1163 9.02771 45.1773C8.92289 44.8852 8.81274 44.5989 8.69622 44.3116C8.4412 43.679 8.20917 43.0388 7.97824 42.3971C7.93537 42.2793 7.8925 42.1614 7.84833 42.04C7.80788 41.9278 7.76743 41.8156 7.72575 41.7C7.68909 41.5985 7.65244 41.497 7.61467 41.3925C7.53516 41.1461 7.53516 41.1461 7.53516 40.9376Z" fill="#FCFCFC"/>
<path d="M67.899 50.2183C67.3722 50.8546 66.8001 51.4366 66.2155 52.0199C66.1132 52.1223 66.0109 52.2246 65.9086 52.327C65.6951 52.5407 65.4815 52.7541 65.2677 52.9674C64.9958 53.2386 64.7244 53.5103 64.4532 53.7822C64.2423 53.9935 64.0311 54.2045 63.8199 54.4155C63.6717 54.5636 63.5237 54.7118 63.3758 54.8601C62.9026 55.3316 62.4246 55.7898 61.9163 56.2234C61.6978 56.4125 61.498 56.6164 61.2984 56.8252C60.837 57.2913 60.3442 57.702 59.8315 58.11C59.6465 58.2588 59.4638 58.4102 59.2813 58.5621C58.2959 59.3791 57.2803 60.1318 56.2225 60.852C56.1176 60.9237 56.0128 60.9954 55.9049 61.0693C54.3803 62.1096 52.8408 63.0965 51.2182 63.9795C51.1525 64.0155 51.0868 64.0516 51.0191 64.0887C50.7431 64.2399 50.4662 64.3891 50.1883 64.5366C49.9455 64.6655 49.7038 64.7958 49.4626 64.9276C48.809 65.2832 48.1701 65.6129 47.465 65.856C47.3288 65.9151 47.1933 65.9756 47.0582 66.0373C46.4287 66.3194 45.7907 66.5797 45.1519 66.8399C44.9646 66.9162 44.9646 66.9162 44.7736 66.9941C44.0318 67.2947 43.2898 67.5848 42.5325 67.8442C42.2725 67.9341 42.0186 68.0336 41.7636 68.1366C41.4182 68.2538 41.4182 68.2538 41.1055 68.1496C43.1891 66.0541 45.274 63.96 47.3609 61.8678C47.6079 61.6201 47.8549 61.3725 48.1018 61.1248C48.151 61.0755 48.2002 61.0262 48.2508 60.9754C49.0443 60.1797 49.8369 59.383 50.6291 58.586C51.4435 57.7667 52.259 56.9485 53.0752 56.1311C53.5331 55.6726 53.9905 55.2137 54.4468 54.7536C54.8772 54.3196 55.3088 53.887 55.7414 53.4552C55.899 53.2974 56.0563 53.1391 56.213 52.9804C57.9414 51.2309 59.8021 49.9255 62.2692 49.4885C62.3641 49.4696 62.459 49.4506 62.5568 49.4311C64.3547 49.182 66.2758 49.3766 67.899 50.2183Z" fill="#FEFDFC"/>
<path d="M68.1064 33.642C68.3048 33.9395 68.363 34.1025 68.4321 34.4431C68.4496 34.5273 68.467 34.6115 68.485 34.6983C68.4977 34.7624 68.5103 34.8265 68.5233 34.8925C68.4545 34.8925 68.3857 34.8925 68.3149 34.8925C68.1963 34.4479 68.1064 34.1042 68.1064 33.642Z" fill="#8F969C"/>
</svg>
