<svg width="65" height="76" viewBox="0 0 65 76" fill="none" xmlns="http://www.w3.org/2000/svg">
<path d="M27.795 0.0352524C33.116 -0.0334373 33.116 -0.0334374 34.5701 0.336908C34.8085 0.349495 35.0469 0.359424 35.2854 0.367739C36.0573 0.406808 36.774 0.567662 37.5172 0.774459C37.7309 0.831189 37.9451 0.880303 38.1611 0.927695C41.9097 1.76669 45.5891 3.52638 48.7784 5.63405C48.9561 5.75128 49.1349 5.86658 49.3142 5.98118C49.9973 6.4237 50.6203 6.91725 51.2431 7.44022C51.4198 7.58211 51.5965 7.72393 51.7733 7.86568C52.775 8.68922 53.6993 9.59022 54.6191 10.503C54.718 10.6012 54.8171 10.6992 54.9164 10.7971C55.8536 11.7224 56.6748 12.717 57.4522 13.7789C57.5407 13.8996 57.5407 13.8996 57.6309 14.0226C58.1547 14.7412 58.6583 15.4704 59.1356 16.2207C59.1714 16.277 59.2073 16.3333 59.2443 16.3912C60.3737 18.1793 61.3091 20.08 62.0952 22.0415C62.1255 22.117 62.1558 22.1925 62.187 22.2703C62.4473 22.9259 62.6831 23.5696 62.8287 24.2608C62.9144 24.6403 63.0223 25.0131 63.1274 25.3876C63.9474 28.3253 64.3253 31.2751 64.3088 34.3243C64.3086 34.4397 64.3084 34.5551 64.3081 34.674C64.3021 36.5746 64.1936 38.4197 63.8711 40.2931C63.8558 40.3865 63.8405 40.4799 63.8248 40.5762C63.7301 41.1452 63.612 41.7056 63.4764 42.2662C63.4439 42.4025 63.4439 42.4025 63.4108 42.5415C63.0751 43.9227 62.6541 45.2734 62.2001 46.6195C62.1644 46.7267 62.1644 46.7267 62.1281 46.8361C61.7955 47.832 61.3907 48.7617 60.9026 49.6912C60.7789 49.9275 60.6596 50.1659 60.5399 50.4043C59.1665 53.0877 57.3993 55.4396 55.4853 57.7554C55.1974 57.6257 54.997 57.4874 54.7777 57.2609C54.6922 57.1737 54.6922 57.1737 54.6049 57.0847C54.5157 56.9924 54.5157 56.9924 54.4247 56.8983C53.872 56.3339 53.872 56.3339 53.284 55.8069C52.7879 55.3849 52.2217 54.8913 51.9352 54.2989C51.9336 54.1051 51.9336 54.1051 52.0766 53.9062C52.1495 53.8335 52.2224 53.7607 52.2974 53.6858C53.7599 52.135 54.9145 50.2764 55.8799 48.3829C55.945 48.3829 56.0101 48.3829 56.0772 48.3829C56.1051 48.2966 56.133 48.2102 56.1618 48.1212C56.2638 47.8224 56.3769 47.5347 56.5 47.2442C57.9967 43.6696 59.2277 39.9352 59.2577 36.0215C59.2587 35.917 59.2597 35.8126 59.2607 35.7049C59.2898 31.7741 58.9795 27.9797 57.4584 24.3106C57.3865 24.1183 57.3167 23.9252 57.2469 23.7321C55.8939 20.0119 53.6727 16.6271 50.8484 13.8529C50.6025 13.6081 50.3582 13.3628 50.1181 13.1122C49.4256 12.3973 48.6859 11.7838 47.8887 11.1892C47.8207 11.138 47.7526 11.0869 47.6824 11.0342C45.4284 9.34756 42.9981 7.9649 40.3803 6.92319C40.2251 6.86093 40.071 6.7958 39.9172 6.72997C38.8778 6.28799 37.7581 5.96886 36.6423 5.79851C36.4446 5.76305 36.4446 5.76305 36.2473 5.6644C36.0135 5.62599 35.7791 5.59158 35.5444 5.55957C35.418 5.54215 35.2916 5.52473 35.1613 5.50678C35.0639 5.49368 34.9665 5.48058 34.8661 5.46708C34.8661 5.40197 34.8661 5.33685 34.8661 5.26977C31.9106 5.04612 28.963 4.95315 26.0055 5.19577C25.9365 5.20115 25.8674 5.20653 25.7962 5.21207C24.4602 5.31955 23.1941 5.58051 21.9421 6.05902C21.7457 6.10046 21.5483 6.13751 21.3502 6.17001C16.2868 7.21519 10.1677 11.174 7.12829 15.3856C6.98432 15.5781 6.83719 15.7638 6.68434 15.949C5.64941 17.206 4.78662 18.5528 3.98671 19.9697C3.51147 19.5739 3.06534 19.1595 2.63134 18.7191C2.57147 18.6589 2.5116 18.5986 2.44992 18.5366C2.26107 18.3465 2.07254 18.1562 1.8841 17.9657C1.63401 17.713 1.38361 17.4606 1.133 17.2084C1.07576 17.1504 1.01852 17.0923 0.959546 17.0325C0.675769 16.7382 0.675771 16.7382 0.336426 16.5167C0.580852 14.7079 2.97628 12.5342 4.16899 11.2262C4.30722 11.0737 4.44375 10.9196 4.57826 10.7637C6.91462 8.07845 9.92974 5.86753 13.0555 4.19624C13.2429 4.0953 13.4287 3.99198 13.6142 3.88741C17.9032 1.51154 22.8963 0.102331 27.795 0.0352524Z" fill="#A6A6A8"/>
<path d="M8.91891 17.8978C9.25685 17.9554 9.41781 18.0644 9.6572 18.3065C9.75492 18.4043 9.75492 18.4043 9.85462 18.504C9.9238 18.5747 9.99298 18.6455 10.0642 18.7183C10.136 18.7904 10.2077 18.8625 10.2815 18.9369C10.5104 19.1674 10.7382 19.3989 10.966 19.6305C11.121 19.787 11.2761 19.9434 11.4312 20.0997C11.8113 20.4831 12.1906 20.8673 12.5692 21.2522C12.4149 21.5767 12.2462 21.7944 11.9958 22.0538C10.6814 23.4981 9.68848 25.1882 8.7216 26.8756C8.64963 27.001 8.64963 27.001 8.57622 27.1289C7.37818 29.2413 6.63223 31.4722 6.04943 33.8184C5.92188 34.3244 5.78593 34.828 5.64979 35.3317C5.42106 36.2028 5.33777 37.0465 5.30228 37.9438C5.28879 38.2788 5.27104 38.6007 5.21815 38.9322C5.1432 39.5144 5.1467 40.095 5.14531 40.6815C5.14506 40.7803 5.14506 40.7803 5.14481 40.8811C5.14465 41.9525 5.20373 43.0126 5.30563 44.079C5.31185 44.1453 5.31808 44.2117 5.3245 44.2801C5.38751 44.9377 5.4636 45.5808 5.62009 46.2231C5.68334 46.4966 5.71202 46.7723 5.74341 47.051C5.83848 47.7497 6.02546 48.3985 6.23323 49.0696C6.33691 49.4053 6.42278 49.7423 6.50183 50.0847C7.3632 53.5677 9.50588 56.8296 11.6813 59.6298C11.7538 59.7235 11.8263 59.8173 11.901 59.9138C12.3476 60.4751 12.827 61.0039 13.3153 61.529C13.3758 61.5943 13.4363 61.6596 13.4986 61.7269C13.8675 62.1188 14.2517 62.4809 14.6601 62.8313C14.8764 63.0169 15.0852 63.2101 15.2946 63.4034C16.8875 64.8362 18.7646 66.3116 20.7577 67.1278C20.7577 67.1929 20.7577 67.258 20.7577 67.3251C20.8346 67.3487 20.9115 67.3724 20.9908 67.3967C21.456 67.5596 21.9032 67.7568 22.3547 67.954C22.9784 68.2239 23.5995 68.4902 24.2426 68.7113C24.442 68.782 24.6393 68.8589 24.8353 68.9387C26.0396 69.4257 27.2863 69.7056 28.5515 69.9888C28.6654 70.0152 28.6654 70.0152 28.7816 70.0421C34.7439 71.411 41.2072 70.5795 46.7536 68.0715C47.126 67.9049 47.5027 67.754 47.8827 67.6056C48.0692 67.529 48.2504 67.4399 48.4307 67.3497C48.6774 67.2264 48.6774 67.2264 48.8747 67.2264C48.8747 67.1613 48.8747 67.0962 48.8747 67.0291C48.9834 66.9716 49.0922 66.9141 49.2042 66.8549C50.6769 66.0639 52.031 65.1418 53.3142 64.0694C53.4556 63.9536 53.4556 63.9536 53.5998 63.8355C54.246 63.3017 54.8666 62.7429 55.4785 62.1702C55.5485 62.105 55.6185 62.0397 55.6907 61.9725C56.1118 61.5748 56.4986 61.1628 56.8658 60.715C56.9364 60.6305 57.007 60.5459 57.0797 60.4588C57.3054 60.1833 57.5299 59.9068 57.7537 59.6298C57.7967 59.577 57.8396 59.5242 57.8838 59.4697C58.7841 58.3587 59.6087 57.2036 60.2938 55.946C60.3346 55.8919 60.3754 55.8379 60.4175 55.7822C60.776 55.7822 60.8088 55.8392 61.0565 56.0823C61.1577 56.1806 61.1577 56.1806 61.2609 56.281C61.3331 56.3528 61.4052 56.4246 61.4796 56.4986C61.5538 56.5719 61.6281 56.6452 61.7046 56.7207C61.8616 56.8761 62.0181 57.032 62.1743 57.1882C62.4141 57.4274 62.6562 57.6641 62.8985 57.9008C63.0505 58.0519 63.2023 58.2032 63.354 58.3546C63.427 58.4254 63.4999 58.4962 63.5751 58.5692C63.6744 58.6699 63.6744 58.6699 63.7757 58.7726C63.8346 58.8311 63.8936 58.8896 63.9543 58.9499C64.0677 59.1365 64.0677 59.1365 64.0426 59.3946C63.9711 59.6234 63.8933 59.7826 63.7567 59.9782C63.7132 60.0412 63.6696 60.1043 63.6247 60.1693C63.5541 60.2685 63.5541 60.2685 63.482 60.3697C63.4333 60.4391 63.3847 60.5085 63.3346 60.58C61.8082 62.7422 60.1041 64.9136 58.0821 66.6356C57.8962 66.7943 57.7129 66.955 57.5302 67.1173C55.5109 68.9037 53.305 70.3662 50.9465 71.666C50.8681 71.7094 50.7898 71.7529 50.709 71.7976C48.6248 72.9485 48.6248 72.9485 47.8881 72.9485C47.8881 73.0136 47.8881 73.0788 47.8881 73.1458C43.5205 74.6459 39.338 75.6207 34.699 75.6369C34.6056 75.6375 34.5122 75.638 34.416 75.6386C33.1497 75.644 31.906 75.5794 30.6474 75.4395C30.4324 75.4157 30.2173 75.3934 30.0021 75.3716C27.8993 75.1524 25.8247 74.5797 23.8261 73.9046C23.5293 73.8071 23.2288 73.7238 22.9281 73.6391C18.8691 72.4205 15.1625 69.9148 11.9746 67.1813C11.7719 67.0079 11.5684 66.8364 11.363 66.6665C11.0904 66.4381 10.8444 66.1982 10.5961 65.9439C10.5433 65.8921 10.4905 65.8403 10.4361 65.787C10.0786 65.4359 9.74331 65.0733 9.4172 64.6929C9.22331 64.4735 9.0221 64.2627 8.81944 64.0514C7.97971 63.1687 7.26277 62.1955 6.55116 61.2083C6.49417 61.1294 6.43718 61.0505 6.37846 60.9693C4.7486 58.6799 3.45387 56.1781 2.41328 53.574C2.32513 53.3558 2.2341 53.1395 2.14015 52.9238C1.47493 51.3628 1.03673 49.679 0.766187 48.0058C0.724351 47.7543 0.678548 47.5037 0.632558 47.253C0.597322 47.0582 0.562124 46.8635 0.526965 46.6687C0.510917 46.5815 0.49487 46.4942 0.478335 46.4043C0.209823 44.8829 0.101431 43.378 0.107676 41.8345C0.107758 41.7484 0.107839 41.6623 0.107923 41.5736C0.113433 39.0111 0.22253 36.3089 0.810602 33.8063C0.827619 33.7325 0.844637 33.6588 0.86217 33.5828C0.915895 33.3528 0.971015 33.1233 1.02641 32.8937C1.05212 32.7847 1.05212 32.7847 1.07834 32.6735C2.30557 27.515 4.86445 22.7086 8.27452 18.6688C8.49055 18.4128 8.70468 18.1553 8.91891 17.8978Z" fill="#1E2C39"/>
<path d="M22.9279 17.9966C23.1064 18.1396 23.1064 18.1396 23.2896 18.3248C23.3587 18.3939 23.4279 18.4631 23.499 18.5343C23.5725 18.6093 23.646 18.6843 23.7218 18.7616C23.8359 18.8764 23.8359 18.8764 23.9523 18.9934C24.1952 19.238 24.4371 19.4837 24.679 19.7293C24.8435 19.8953 25.0081 20.0612 25.1727 20.227C25.5762 20.6338 25.9788 21.0414 26.3808 21.4496C26.2822 21.7456 26.2822 21.7456 26.1269 21.8366C26.0581 21.8635 25.9893 21.8905 25.9184 21.9183C23.6542 22.8697 21.7285 24.2901 19.9682 25.9879C19.8849 26.0679 19.8849 26.0679 19.7999 26.1496C18.4517 27.4519 17.3477 28.8979 16.4166 30.5261C16.349 30.6396 16.349 30.6396 16.2801 30.7554C15.034 32.9242 14.2537 35.3668 13.8515 37.8267C13.8342 37.9277 13.8342 37.9277 13.8165 38.0307C13.5834 39.4316 13.6273 40.8512 13.6542 42.2663C13.655 42.3387 13.6559 42.411 13.6568 42.4856C13.6828 44.145 14.1101 45.9258 14.6408 47.4951C14.6649 47.5671 14.6891 47.6391 14.7141 47.7133C15.6425 50.4268 17.0651 53.1252 19.0803 55.1904C19.1878 55.3173 19.2946 55.4448 19.4009 55.5727C21.6296 58.1118 25.2691 60.6154 28.6499 61.2085C28.6499 61.2736 28.6499 61.3387 28.6499 61.4058C28.7467 61.4155 28.8435 61.4251 28.9432 61.4351C29.7794 61.5254 30.5653 61.6723 31.3726 61.9087C32.0464 62.0874 32.7002 62.1121 33.3924 62.113C33.4869 62.1133 33.5814 62.1136 33.6788 62.114C33.8783 62.1145 34.0778 62.1147 34.2773 62.1147C34.5786 62.1149 34.8799 62.1167 35.1813 62.1186C36.1795 62.1215 37.1392 62.1017 38.1209 61.8991C38.2044 61.8842 38.2878 61.8692 38.3738 61.8538C39.0379 61.7315 39.6851 61.5522 40.3345 61.3688C40.4386 61.3401 40.5427 61.3113 40.65 61.2817C43.208 60.5639 45.5757 59.3396 47.6549 57.6888C47.9204 57.4793 48.1751 57.3087 48.4798 57.1635C48.9611 57.6323 49.4404 58.103 49.9184 58.575C50.0813 58.7354 50.2447 58.8954 50.4085 59.055C50.6435 59.284 50.8769 59.5146 51.11 59.7456C51.1839 59.8169 51.2578 59.8883 51.3339 59.9618C51.4011 60.0289 51.4682 60.096 51.5374 60.1652C51.5972 60.2239 51.6571 60.2826 51.7187 60.3431C51.8342 60.5179 51.8342 60.5179 51.8176 60.7235C51.6869 61.0242 51.4416 61.1882 51.1867 61.3811C51.1268 61.4271 51.0669 61.4731 51.0052 61.5205C47.372 64.2591 43.2125 66.2964 38.6759 66.9429C38.5579 66.9599 38.4399 66.9768 38.3183 66.9943C36.055 67.3124 33.7779 67.3328 31.511 67.0293C31.4345 67.0192 31.3581 67.0092 31.2794 66.9988C24.1186 66.0305 17.9623 62.1733 13.5925 56.4791C12.3717 54.8317 12.3717 54.8317 12.3717 54.4011C12.3065 54.4011 12.2414 54.4011 12.1743 54.4011C11.977 54.1052 11.977 54.1052 11.977 53.7105C11.9119 53.7105 11.8468 53.7105 11.7797 53.7105C11.7421 53.623 11.7421 53.623 11.7038 53.5337C11.6698 53.4557 11.6359 53.3777 11.6009 53.2974C11.5677 53.2207 11.5345 53.144 11.5003 53.065C11.3882 52.8182 11.3882 52.8182 11.2375 52.581C11.0821 52.3174 10.9745 52.0608 10.8672 51.7744C10.8248 51.6615 10.7825 51.5485 10.7388 51.4322C10.7046 51.3397 10.7046 51.3397 10.6696 51.2453C10.591 51.0339 10.5112 50.823 10.4313 50.6121C8.0678 44.3392 7.8397 37.3306 10.5397 31.0876C10.8045 30.5075 11.0856 29.9365 11.374 29.368C11.4662 29.1806 11.5488 28.9886 11.629 28.7957C11.8285 28.3438 12.0739 27.9276 12.3285 27.5047C12.4069 27.3743 12.4069 27.3743 12.487 27.2412C12.929 26.5173 13.414 25.8553 13.9502 25.1986C14.0484 25.0721 14.0484 25.0721 14.1486 24.9431C15.4522 23.2694 16.9854 21.6573 18.6986 20.4012C18.8996 20.2535 19.0986 20.1032 19.2976 19.9528C20.0676 19.3777 20.8549 18.8436 21.6823 18.3543C21.7615 18.3066 21.8407 18.259 21.9223 18.2099C22.0336 18.1459 22.0336 18.1459 22.1471 18.0807C22.2123 18.0428 22.2774 18.005 22.3446 17.9661C22.5872 17.8785 22.6862 17.9106 22.9279 17.9966Z" fill="#A6A6A8"/>
<path d="M29.5954 8.49968C29.8962 8.50074 30.1969 8.49968 30.4977 8.49842C32.0788 8.49714 33.5905 8.62375 35.1369 8.96936C35.248 8.99408 35.3591 9.01881 35.4736 9.04429C36.8184 9.35898 38.1103 9.82055 39.4038 10.3012C39.5157 10.3421 39.6276 10.3829 39.743 10.425C40.3723 10.6592 40.9558 10.917 41.531 11.2631C42.0679 11.5863 42.0679 11.5863 42.6594 11.7811C42.6594 11.8462 42.6594 11.9113 42.6594 11.9784C42.791 12.0185 42.791 12.0185 42.9253 12.0593C44.5842 12.6515 46.0998 14.1733 47.3949 15.3327C47.4782 15.4067 47.4782 15.4067 47.5631 15.4821C48.1045 15.9634 48.6313 16.4472 49.0964 17.0041C49.2228 17.1526 49.3544 17.2967 49.4887 17.4381C52.6301 20.7488 54.5739 25.3268 55.4847 29.7367C55.5098 29.8528 55.5348 29.9689 55.5607 30.0885C55.8692 31.7557 55.7904 33.521 55.798 35.2116C55.7988 35.3779 55.7999 35.5442 55.8013 35.7105C55.8496 42.0979 52.7556 48.4001 48.3345 52.9043C47.4481 53.8002 46.5502 54.6569 45.5205 55.3876C45.3947 55.4795 45.3947 55.4795 45.2665 55.5733C44.1483 56.3764 42.9728 57.0853 41.7715 57.7553C41.2716 57.3368 40.8035 56.8993 40.3445 56.4366C40.2441 56.336 40.2441 56.336 40.1417 56.2334C39.9304 56.0216 39.7195 55.8094 39.5086 55.5972C39.3644 55.4525 39.2202 55.3079 39.076 55.1633C38.7246 54.8108 38.3735 54.458 38.0226 54.105C38.184 53.7822 38.5371 53.7085 38.855 53.5686C40.3087 52.9048 41.6178 52.051 42.8567 51.0466C42.944 50.9795 43.0312 50.9123 43.1211 50.8432C44.4544 49.7987 45.6048 48.561 46.6057 47.199C46.6904 47.0865 46.7752 46.9739 46.86 46.8614C47.8509 45.5291 48.5929 44.0741 49.2694 42.5621C49.3428 42.3984 49.3428 42.3984 49.4178 42.2315C49.657 41.6787 49.8463 41.1311 49.992 40.5466C50.0586 40.293 50.0586 40.293 50.1558 40.0309C50.2935 39.5776 50.3489 39.1218 50.4101 38.6528C50.4347 38.4686 50.4595 38.2844 50.4845 38.1002C50.5004 37.9788 50.5004 37.9788 50.5167 37.8549C50.5519 37.6293 50.5519 37.6293 50.6021 37.4367C50.8418 36.4378 50.7706 35.3269 50.7729 34.3036C50.7739 34.0547 50.777 33.8058 50.7801 33.557C50.7861 32.6052 50.7111 31.7157 50.5171 30.7835C50.4587 30.4576 50.4411 30.1653 50.4533 29.8353C50.3882 29.8353 50.323 29.8353 50.256 29.8353C50.2466 29.7522 50.2466 29.7522 50.2371 29.6673C49.7464 26.2999 47.6835 23.0076 45.4558 20.5134C45.3359 20.3787 45.2182 20.2421 45.1008 20.1053C44.6812 19.6192 44.2408 19.1928 43.7446 18.7857C43.6934 18.7431 43.6421 18.7005 43.5893 18.6566C42.3722 17.6474 41.1105 16.7449 39.6997 16.0233C39.6997 15.9582 39.6997 15.8931 39.6997 15.826C39.603 15.8129 39.603 15.8129 39.5043 15.7994C39.1065 15.7032 38.7568 15.5352 38.3864 15.3636C36.8779 14.6832 35.4047 14.185 33.7804 13.8529C33.7042 13.8364 33.6279 13.82 33.5494 13.8031C31.0781 13.2874 28.1552 13.3246 25.6905 13.8529C25.5672 13.8775 25.5672 13.8775 25.4414 13.9026C22.2125 14.5537 19.2586 15.9553 16.669 17.9756C16.4881 18.1165 16.305 18.2543 16.1209 18.3911C15.8112 18.2542 15.6057 18.0956 15.3702 17.8535C15.3038 17.786 15.2374 17.7186 15.169 17.6491C15.0664 17.5433 15.0664 17.5433 14.9617 17.4354C14.4461 16.9065 13.9188 16.4059 13.3585 15.9247C13.2067 15.789 13.0561 15.6518 12.9084 15.5116C12.8411 15.4491 12.7738 15.3867 12.7045 15.3223C12.5693 15.1354 12.5693 15.1354 12.593 14.9424C12.7207 14.5988 13.0267 14.415 13.3092 14.1982C13.3751 14.1467 13.4411 14.0952 13.5091 14.0422C16.5416 11.6969 16.5416 11.6969 18.2501 11.0816C18.5335 10.9749 18.8015 10.8455 19.0744 10.7144C20.7592 9.92957 22.5215 9.42295 24.3279 9.00635C24.4338 8.98129 24.5397 8.95623 24.6489 8.93041C26.287 8.56282 27.9217 8.49267 29.5954 8.49968Z" fill="#1E2C39"/>
<path d="M6.9456 8.42688C7.01071 8.45944 7.07582 8.49199 7.14291 8.52554C6.06854 9.59991 4.99418 10.6743 3.88725 11.7812C3.82214 11.7487 3.75703 11.7161 3.68994 11.6826C3.76338 11.6108 3.76338 11.6108 3.83831 11.5377C3.90533 11.4715 3.97235 11.4054 4.0414 11.3373C4.13926 11.2411 4.13926 11.2411 4.2391 11.143C4.43338 10.941 4.61522 10.7359 4.79713 10.523C5.1858 10.0754 5.61058 9.67381 6.04536 9.27163C6.12141 9.20073 6.19746 9.12983 6.27581 9.05678C6.41462 8.92738 6.55358 8.79814 6.69274 8.66912C6.77817 8.58958 6.86306 8.50941 6.9456 8.42688Z" fill="#FE8129"/>
<path d="M10.3 12.0773C10.3651 12.1098 10.4302 12.1424 10.4973 12.1759C10.0941 12.584 9.69024 12.9915 9.28578 13.3983C9.14819 13.5369 9.01077 13.6757 8.87353 13.8146C8.67661 14.0139 8.47907 14.2126 8.2814 14.4111C8.21983 14.4737 8.15827 14.5363 8.09484 14.6008C7.94569 14.75 7.79142 14.894 7.63628 15.037C7.57116 15.037 7.50605 15.037 7.43896 15.037C7.57221 14.7396 7.72073 14.5335 7.95151 14.3044C8.01366 14.2424 8.07581 14.1803 8.13984 14.1164C8.20563 14.0519 8.27142 13.9874 8.3392 13.9209C8.43951 13.8216 8.43951 13.8216 8.54184 13.7202C8.93506 13.333 9.33386 12.9562 9.75546 12.5998C9.94761 12.4359 10.1251 12.2594 10.3 12.0773Z" fill="#FEE6D5"/>
<path d="M13.3586 14.1489C13.4237 14.1815 13.4888 14.214 13.5559 14.2476C13.5072 14.2929 13.4585 14.3381 13.4083 14.3848C13.3451 14.4453 13.2819 14.5058 13.2168 14.5682C13.1538 14.6277 13.0909 14.6873 13.026 14.7486C12.8569 14.9481 12.8067 15.0776 12.7666 15.3328C12.7015 15.2677 12.6364 15.2026 12.5693 15.1355C12.59 14.8743 12.647 14.7628 12.8287 14.5728C12.8916 14.5225 12.9546 14.4721 13.0195 14.4202C13.0827 14.3689 13.1459 14.3175 13.211 14.2645C13.2597 14.2264 13.3084 14.1882 13.3586 14.1489Z" fill="#47515C"/>
</svg>
